<svg xmlns="http://www.w3.org/2000/svg" width="22.295" height="22.307" viewBox="0 0 22.295 22.307">
    <defs>
        <style>
            .cls-1{fill:#fff}
        </style>
    </defs>
    <g id="ball-of-basketball" transform="translate(-.123)">
        <g id="_x31_4_26_" transform="translate(.123)">
            <g id="Group_824" data-name="Group 824">
                <path id="Path_3900" d="M162.981 1.8a2.983 2.983 0 0 0 .176-1.669v-.08A12.063 12.063 0 0 0 162.079 0a11.123 11.123 0 0 0-3.943.719 25.971 25.971 0 0 1 3.733 2.213 8.028 8.028 0 0 0 1.112-1.132z" class="cls-1" data-name="Path 3900" transform="translate(-150.926)"/>
                <path id="Path_3901" d="M358.677 178.722a7.386 7.386 0 0 0-1.41.279 25.2 25.2 0 0 1 2.815 10.519 11.112 11.112 0 0 0 3.183-7.365c-1.294-1.59-3.008-3.612-4.588-3.433z" class="cls-1" data-name="Path 3901" transform="translate(-340.97 -170.556)"/>
                <path id="Path_3902" d="M26.748 33.246a9.864 9.864 0 0 0 3.581-1.655 23.7 23.7 0 0 0-4.162-2.319 11.2 11.2 0 0 0-4.892 5.28 21.864 21.864 0 0 1 4.111-1.043c.449-.084.914-.17 1.362-.263z" class="cls-1" data-name="Path 3902" transform="translate(-20.309 -27.936)"/>
                <path id="Path_3903" d="M310.171 83.373q.178.179.355.365a11.861 11.861 0 0 1 1.19 1.483 7.827 7.827 0 0 1 1.884-.421c1.748-.2 3.3 1.187 4.636 2.711a11.107 11.107 0 0 0-2.754-6.052 15.835 15.835 0 0 0-2.621.535 12.824 12.824 0 0 0-2.69 1.379z" class="cls-1" data-name="Path 3903" transform="translate(-296.023 -77.739)"/>
                <path id="Path_3904" d="M73.849 142.3a5.833 5.833 0 0 1 2.014-3.391 10.431 10.431 0 0 0-1-1.235 30.269 30.269 0 0 0-.5-.509c-4.119 2.8-9.761 7.954-10.274 12.416a11.128 11.128 0 0 0 6.695 3.523 46.028 46.028 0 0 0 2.4-8.113c.258-1.107.481-2.066.665-2.691z" class="cls-1" data-name="Path 3904" transform="translate(-61.168 -130.91)"/>
                <path id="Path_3905" d="M8.133 99.723a39.778 39.778 0 0 1 4.34-3.464 23.674 23.674 0 0 0-1.382-1.132 11.2 11.2 0 0 1-4.3 2.061c-.46.1-.931.183-1.386.268A15.867 15.867 0 0 0 .55 98.887a11.142 11.142 0 0 0 1.574 9.423c.815-3.231 3.614-6.38 6.009-8.587z" class="cls-1" data-name="Path 3905" transform="translate(-.123 -90.786)"/>
                <path id="Path_3906" d="M261.416 9.4a14.751 14.751 0 0 1 3.213-1.652 16.476 16.476 0 0 1 1.939-.45 11.111 11.111 0 0 0-5.11-2.516 3.394 3.394 0 0 1-.407 2.255 8.684 8.684 0 0 1-1.089 1.139c.48.373.968.78 1.454 1.224z" class="cls-1" data-name="Path 3906" transform="translate(-248.105 -4.563)"/>
                <path id="Path_3907" d="M239.651 198.755c-.174.59-.394 1.534-.648 2.628a48.063 48.063 0 0 1-2.307 7.96c.119 0 .238.009.358.009a11.1 11.1 0 0 0 6.885-2.382 24.758 24.758 0 0 0-2.749-10.981 4.915 4.915 0 0 0-1.539 2.766z" class="cls-1" data-name="Path 3907" transform="translate(-225.901 -187.046)"/>
            </g>
        </g>
    </g>
</svg>
