<svg xmlns="http://www.w3.org/2000/svg" width="18.104" height="22.118" viewBox="0 0 18.104 22.118">
    <defs>
        <style>
            .cls-1{fill:#fff}
        </style>
    </defs>
    <g id="icon_4_" data-name="icon (4)" transform="translate(-2.352)">
        <g id="Group_829" data-name="Group 829" transform="translate(2.352)">
            <path id="Path_3915" d="M7.915 6.939a1.474 1.474 0 0 0 .332.725c.327 2.275 2.369 4.214 4.01 4.133 2.087-.1 3.566-2.351 3.9-4.133a1.818 1.818 0 0 0 .349-.8 1.865 1.865 0 0 0-.061-1.351c-.015-.017-.108-.1-.125-.118a3.493 3.493 0 0 0-.533-3.715 5.974 5.974 0 0 0-2.535-1.4 3.919 3.919 0 0 0-5.24 2.356 4.1 4.1 0 0 0 .022 2.758.487.487 0 0 0-.123.118c-.246.325-.086 1.018.004 1.427z" class="cls-1" data-name="Path 3915" transform="translate(-3.147)"/>
            <path id="Path_3916" d="M20.45 21.378a11.568 11.568 0 0 0-1.529-6.078 3.032 3.032 0 0 0-1.315-.885 13.381 13.381 0 0 1-2.934-1.273l-.422.289.047 2.746-2.537 6.771a.379.379 0 0 1-.71 0l-2.536-6.771s.047-2.738.046-2.746c.006.023-.423-.289-.423-.289A13.345 13.345 0 0 1 5.2 14.414a3.032 3.032 0 0 0-1.315.885 11.578 11.578 0 0 0-1.529 6.078c-.05 1.082.178 1.486.463 1.6 3.539 1.42 13.626 1.42 17.165 0 .289-.112.516-.517.466-1.599z" class="cls-1" data-name="Path 3916" transform="translate(-2.352 -1.926)"/>
            <path id="Path_3917" d="M12.855 14.813h-.114a3.392 3.392 0 0 1-1.106-.2l1.005 1.539-.9.871.929 5.639a.1.1 0 0 0 .1.084.1.1 0 0 0 .1-.084l.929-5.639-.9-.871.991-1.516a4.249 4.249 0 0 1-1.034.177z" class="cls-1" data-name="Path 3917" transform="translate(-3.712 -2.142)"/>
        </g>
    </g>
</svg>
