<svg xmlns="http://www.w3.org/2000/svg" width="26.854" height="21.016" viewBox="0 0 26.854 21.016">
    <defs>
        <style>
            .cls-1{fill:#fff}
        </style>
    </defs>
    <g id="newspaper_1_" data-name="newspaper (1)" transform="translate(0 -49.461)">
        <path id="Path_3891" d="M26.332 62.337a1.125 1.125 0 0 0-1.155.11l-7.433 4.681a.443.443 0 1 0 .472.749l7.432-4.677c.157-.1.243-.092.256-.085s.065.076.065.261a1.948 1.948 0 0 1-.792 1.435l-7.207 4.535a1 1 0 0 1-.961.182 1 1 0 0 1-.358-.91 4.336 4.336 0 0 1 1.791-3.244l8.2-5.167a.443.443 0 0 0 0-.749L10.881 49.53a.443.443 0 0 0-.472 0l-8.3 5.23A4.942 4.942 0 0 0 0 58.571v.236a4.942 4.942 0 0 0 2.1 3.813l12.357 7.78a.443.443 0 1 0 .472-.749l-12.353-7.78a4.094 4.094 0 0 1-1.691-3.063v-.236a4.094 4.094 0 0 1 1.691-3.063l8.069-5.081 14.935 9.4-7.61 4.792a5.176 5.176 0 0 0-2.2 3.993 1.8 1.8 0 0 0 .816 1.685 1.413 1.413 0 0 0 .691.174 2.224 2.224 0 0 0 1.17-.382l7.206-4.538a2.831 2.831 0 0 0 1.206-2.184 1.125 1.125 0 0 0-.527-1.031z" class="cls-1" data-name="Path 3891"/>
        <path id="Path_3892" d="M183.541 115.875a.443.443 0 0 0 .236-.817l-10.228-6.44a.443.443 0 0 0-.472.749l10.228 6.441a.441.441 0 0 0 .236.067z" class="cls-1" data-name="Path 3892" transform="translate(-162.668 -55.6)"/>
        <path id="Path_3893" d="M247.738 195.267a.443.443 0 0 0 .236-.818l-4.321-2.709a.443.443 0 0 0-.47.75l4.317 2.71a.44.44 0 0 0 .238.067z" class="cls-1" data-name="Path 3893" transform="translate(-228.635 -133.818)"/>
        <path id="Path_3894" d="M213.107 211.487a.443.443 0 0 0-.469.751l4.354 2.719a.443.443 0 1 0 .469-.751z" class="cls-1" data-name="Path 3894" transform="translate(-199.892 -152.4)"/>
        <path id="Path_3895" d="M83.261 128.245l-3.679 2.317a.443.443 0 0 0 0 .75l4.387 2.728a.443.443 0 0 0 .474 0l.977-.632a.443.443 0 0 0-.481-.744l-.741.479-3.548-2.206 2.845-1.792 3.5 2.192-.408.263a.443.443 0 1 0 .481.744l.992-.641a.443.443 0 0 0-.005-.747l-4.321-2.71a.443.443 0 0 0-.473-.001z" class="cls-1" data-name="Path 3895" transform="translate(-74.691 -74.07)"/>
        <path id="Path_3896" d="M187.088 234.568a.443.443 0 0 0-.142-.61l-4.387-2.728a.443.443 0 0 0-.467.752l4.387 2.728a.442.442 0 0 0 .61-.142z" class="cls-1" data-name="Path 3896" transform="translate(-171.148 -170.978)"/>
        <path id="Path_3897" d="M52.462 189.531a.443.443 0 0 0 .142.61l10.829 6.733a.443.443 0 0 0 .467-.752l-10.829-6.733a.442.442 0 0 0-.609.142z" class="cls-1" data-name="Path 3897" transform="translate(-49.303 -131.606)"/>
    </g>
</svg>
