<svg xmlns="http://www.w3.org/2000/svg" width="27.51" height="20.396" viewBox="0 0 27.51 20.396">
    <defs>
        <style>
            .cls-1{fill:#fff}
        </style>
    </defs>
    <g id="running">
        <path id="Path_1281" d="M24.786 12.171l-4.11-.294-2.717-4.525L16.6 5.087v-.628a1.233 1.233 0 0 0-1.678-1.151l-3.905 1.507.3-.99A1.841 1.841 0 0 0 10.4 1.7L7.34.057a.474.474 0 0 0-.631.173l-4.5 7.2-.095-.055a.474.474 0 0 0-.647.175l-.008.015-1.403 2.648a.475.475 0 0 0 .19.638l17.115 9.486a.475.475 0 0 0 .23.059h7.074a2.849 2.849 0 0 0 2.846-2.846V15.1a2.944 2.944 0 0 0-2.725-2.926zm-5.1-.1l-.542.181.542-.373-3.696-5.966zM8.209 4.192l1.163.622c.37.2.964.141.855.544l-.218-.477-2.723-1.632-.943-.566zm-.867 6.154l.5-2.783-1.558-1.148a2.717 2.717 0 0 1 1.058 2.561l-.059 1.371L3.044 7.9zm17.323 9.1h-6.953l-16.6-9.2L11.555 16.6l5.514 3.389a6.332 6.332 0 0 0 .89 0h7.507c0 1.048.246-.543-.8-.543zm1.9-2.846h-8.414L14.9 14.728l1.094-1.115a.474.474 0 0 0-.677-.664l-1.265 1.29-1.8-1.039 1.808-1.446a.474.474 0 0 0-.593-.741l-2.1 1.679-1.548-.892 2.343-1.953a.475.475 0 1 0-.607-.73L8.942 11.3l-.733-.422.077-1.821A3.643 3.643 0 0 0 6.85 5.651l-1.616-1.2.611-.959 4.2 2.519a.464.464 0 0 0 .184.059h.06a.471.471 0 0 0 .172-.032l4.8-1.853a.285.285 0 0 1 .388.268v.522l-1.705 1.288a.474.474 0 0 0-.094.664L18.6 13.1a.472.472 0 0 0 .526.161l1.333-.445 4.262.3a1.992 1.992 0 0 1 1.841 1.984zm0 0" class="cls-1" data-name="Path 1281" transform="translate(-.001)"/>
        <path id="Path_1282" d="M2.846 256H.474a.474.474 0 1 0 0 .949h2.372a.474.474 0 1 0 0-.949zm0 0" class="cls-1" data-name="Path 1282" transform="translate(0 -242.244)"/>
        <path id="Path_1283" d="M0 309.439a.474.474 0 0 0 .474.474H6.64a.474.474 0 1 0 0-.949H.474a.474.474 0 0 0-.474.474zm0 0" class="cls-1" data-name="Path 1283" transform="translate(0 -292.363)"/>
        <path id="Path_1284" d="M11.858 361.934H.474a.474.474 0 1 0 0 .948h11.384a.474.474 0 0 0 0-.948zm0 0" class="cls-1" data-name="Path 1284" transform="translate(0 -342.486)"/>
    </g>
</svg>
