<svg xmlns="http://www.w3.org/2000/svg" width="17.936" height="21.311" viewBox="0 0 17.936 21.311">
    <defs>
        <style>
            .cls-1{fill:#fff}
        </style>
    </defs>
    <g id="shield_2_" data-name="shield (2)" transform="translate(-33.907)">
        <g id="Group_828" data-name="Group 828" transform="translate(33.908)">
            <path id="Path_3912" d="M51.821 5.485c-.025-.561-.025-1.1-.025-1.631a.751.751 0 0 0-.765-.765A10.24 10.24 0 0 1 43.411.21a.786.786 0 0 0-1.07 0 10.24 10.24 0 0 1-7.62 2.88.751.751 0 0 0-.765.765c0 .535 0 1.07-.025 1.631-.1 5.352-.255 12.691 8.69 15.775l.255.051.255-.051c8.919-3.085 8.792-10.398 8.69-15.776zM42.264 12.9a.822.822 0 0 1-.535.2H41.7a.717.717 0 0 1-.535-.255l-2.365-2.62 1.147-1.019 1.86 2.064 4.128-3.925 1.045 1.121z" class="cls-1" data-name="Path 3912" transform="translate(-33.908)"/>
        </g>
    </g>
</svg>
