<svg xmlns="http://www.w3.org/2000/svg" id="_2157873" width="287.465" height="174.604" data-name="2157873" viewBox="0 0 287.465 174.604">
    <defs>
        <style>
            .cls-1{fill:#f0bf9c}.cls-2{opacity:.51}.cls-3{fill:#9dccac}.cls-4,.cls-7{fill:#3e3c5c}.cls-5{fill:#d95555}.cls-6{fill:#e37474}.cls-7{opacity:.15}.cls-8{fill:#caebd3}.cls-9{fill:#a6c468}.cls-10{fill:#eb9928}.cls-11{fill:#95a13a}.cls-12{fill:#d98716}.cls-13{fill:#966341}.cls-14{fill:#5868a3}.cls-15{fill:#7278ba}.cls-16{fill:#2f2f30}.cls-17{fill:#e1e8ed}.cls-18{fill:#fcfcfc}.cls-19,.cls-26{fill:none}.cls-19{stroke:#ff9e9e;stroke-miterlimit:10}.cls-20{fill:#afc223}.cls-21{fill:#f85032}.cls-22{fill:#e97043}.cls-23{fill:#c5831f}.cls-24{fill:#fff}.cls-25{fill:#f59264}
        </style>
    </defs>
    <g id="OBDJEKTS">
        <path id="Path_7780" d="M7.745 5.695A20.271 20.271 0 0 0 7.8 3.222a1.008 1.008 0 0 1 .159-.314c.075-.088.326-.088.418-.188a.481.481 0 0 0 .113-.243 1.255 1.255 0 0 0 .025-.837l-.046-.1c-.13-.305-.184-.594-.552-.623-.172 0-.937.276-1 .226S6.883.729 6.858.629a1.255 1.255 0 0 0-.284-.494.477.477 0 0 0-.209-.13.209.209 0 0 0-.218.084.23.23 0 0 0-.029.117 3.807 3.807 0 0 0 .2.7 1.473 1.473 0 0 1-.054.6c-.247 1.06.167 2.194.029 3.294A9.551 9.551 0 0 1 .7 12.112c-.736.351-.749 1.523-.665 2.226a1.209 1.209 0 0 0 .2.586c.36.481 1.117.326 1.673.071 3.904-1.795 5.498-5.401 5.837-9.3z" class="cls-1" data-name="Path 7780" transform="rotate(-8 830.32 -762.679)"/>
        <g id="Group_1653" class="cls-2" data-name="Group 1653" transform="translate(50.545 10.996)">
            <path id="Path_7679" d="M299.342 270.878c-2.361-.953-4.616-2.283-7.2-2.368a14.566 14.566 0 0 0-.548 4.018c.135 4.068 2.233 7.176 5.32 9.637 1.472 1.181 6.031 5.306 7.525 2.29-.761-3.514-2.788-6.088-3.99-9.317-.549-1.464-.267-3.093-1.107-4.26z" class="cls-3" data-name="Path 7679" transform="translate(-165.065 -184.909)"/>
            <path id="Path_7680" d="M267.406 179.206l-.249-.477a30.67 30.67 0 0 0-5.462-6.814 24.283 24.283 0 0 0-5.277-4.331c-1.323-.711-4.353-1.259-4.09-3.357a3.67 3.67 0 0 1 1.807-2.248l2.7-1.935a4.837 4.837 0 0 0 1.038-.9c2.639-3.322-5.1-6.273-7.3-7a22.624 22.624 0 0 0-5.953-1.11c-1.7-.078-4.467-.256-6.024.555-2.752 1.422-6.9 2.681-10 1.828-1.1-.306-2.077-.925-3.172-1.223-4.267-1.188-6.074 2.546-8.592 5.036a31.4 31.4 0 0 1-10.462 6.75 21.338 21.338 0 0 1-6.856 1.913 44.389 44.389 0 0 1-7.276.363c-1.337-.092-4.915-.263-5.854-1.486a1.657 1.657 0 0 1-.242-.789 5.05 5.05 0 0 0-7.155-3.748 1.529 1.529 0 0 0-.711.6 1.984 1.984 0 0 0-.036 1.188c.37 2.653-1.088 5.292-3.115 7.041a25.907 25.907 0 0 1-5.285 3.051c-.548.284-2.333 2.262-2.454 1.031a79.1 79.1 0 0 1-9.708.832c-.654 0-1.316.036-1.984.071-.789.2-1.579.413-2.354.633-3.954 1.152-8.7 2.731-11.92 5.69-.846.768 1.927 4.979 2.411 5.569 1.159 1.479 2.134 2.667 4.161 2.845s4.019-.135 6.017 0a13.272 13.272 0 0 1 10.882 7.873 2.638 2.638 0 0 1 .284 1.515 2.8 2.8 0 0 1-.427.967c-2.66 4.5-7.788 5.541-12.61 3.933a22.76 22.76 0 0 1-9.879-6.565c-1.423-1.622-2.753-3.556-4.808-4.218-3.272-1.067-6.543 1.522-8.834 4.1a63.479 63.479 0 0 0-13.77 25.462 23.233 23.233 0 0 0-.91 10.149 11.38 11.38 0 0 0 3.556 6.479c2.333.512 5.533-.092 7.653 0 3.165.185 6.664.156 8.478 3.1v.064a5.547 5.547 0 0 1 2.226 2.063c1 1.686.91 3.77.875 5.733a73.557 73.557 0 0 0 5.775 29.936c2.233 5.285 5.839 10.768 10.832 13.009a11.2 11.2 0 0 0 10.349-4.979c1.259-2.063 1.679-5.036 2.1-7.376.441-2.468.711-4.979 1.074-7.44a112.3 112.3 0 0 1 5.405-21.757c.932-2.589 3.371-4.616 5.235-6.622 2.063-2.212 4.168-4.516 5.3-7.376a4.524 4.524 0 0 0 .391-2.34c-.491-3.016-4.737-2.98-7.674-3.841a8.407 8.407 0 0 1-5.875-7.276 2.71 2.71 0 0 1 .427-1.927c1.131-1.38 3.414-.036 4.218 1.558s1.28 3.642 2.945 4.267c2.532 1 4.609-2.134 6.97-3.464 3.407-1.949 9.182-1.038 10.085-4.858.64-2.731-2.255-4.893-4.815-6.053s-5.619-2.71-5.725-5.512c1.351-.519 2.845.156 4.125.818 10.164 5.242 21 11.152 25.939 21.465.982 2.048 1.764 4.31 3.5 5.768s4.872 1.558 5.91-.455a6.6 6.6 0 0 0 .405-3.037 13.253 13.253 0 0 1 4.659-10.477c7.169-5.555 15.164 1.088 13.45 9.2-.2.939-.462 1.871-.711 2.8a12.341 12.341 0 0 1 4 1.074c-.711-1.714 2.724-2.9 3.969-2.845 2.191.1 3.983 2.3 6.33 1.422 1.984-.747 2.454-3.471 1.714-5.455s-2.29-3.556-3.322-5.413-1.422-4.4 0-5.939a4.537 4.537 0 0 1 3.663-1.166c3.656.64 9.367.64 9.246-5.349a14.388 14.388 0 0 0-1.373-5.221c-1.863-4.445-4.438-8.535-6.344-12.888a2.261 2.261 0 0 1 .313-2.646 2.319 2.319 0 0 1 1.373-.413c1.28-.043 2.632.107 3.891.156 1.074.043 2.376.569 3.3-.228a2.667 2.667 0 0 0 .747-1.422 11.913 11.913 0 0 0-1.12-7.931z" class="cls-3" data-name="Path 7680" transform="translate(-113.697 -150.968)"/>
            <path id="Path_7681" d="M315.13 338.806c6.5-.519 12.689-6.529 18.777-.441a8.115 8.115 0 0 1 1.913 8.535c-.391.967-.989 1.849-1.295 2.845a3.779 3.779 0 0 0-.164 1.38h5.519q.313-.384.6-.768a43.127 43.127 0 0 1 8.066-8.073 22.4 22.4 0 0 0 4.538-4c4.445-5.946 1.245-14.076-1.031-20.256-.711-1.913-1.074-7.824-2.8-8.535-2.93 2.24-.711 8.329-4.438 9.673a3.451 3.451 0 0 1-4.019-1.97 7.042 7.042 0 0 1-.135-4.8c.327-1.23.768-2.681-.036-3.663a2.959 2.959 0 0 0-1.679-.889 8.883 8.883 0 0 0-8.862 3.144c-1.273 1.65-1.977 3.784-3.627 5.064-2.688 2.1-6.97 1.209-9.459 3.556-1.423 1.3-1.856 3.293-2.255 5.164q-1.174 5.519-2.34 11.046a3.13 3.13 0 0 0 0 1.807c.387.975 1.66 1.266 2.727 1.181z" class="cls-3" data-name="Path 7681" transform="translate(-171.037 -196.207)"/>
            <path id="Path_7682" d="M351.143 291.629a6.152 6.152 0 0 0 1.565 3.129c2.027 1.828 5.775 1.615 8.208 2.8 1.942.946 3.841 4.232 5.69 4.673 3.051.711 1.209-2.98.427-4.815a27.38 27.38 0 0 0-7.34-10.377c-4.893-4.009-10.307-2.224-8.55 4.59z" class="cls-3" data-name="Path 7682" transform="translate(-182.164 -189.65)"/>
            <path id="Path_7683" d="M323.52 283.812a3.983 3.983 0 0 0 .711-2.937 9.515 9.515 0 0 1 0-3.08c.491-1.807 2.411-3.428 1.721-5.171-.533-1.323-2.4-1.643-3.677-1a7.7 7.7 0 0 0-2.809 3.151 8.06 8.06 0 0 1-2.774 3.186c-.384.213-.832.377-1.038.768a1.422 1.422 0 0 0-.135.711c.014 2.722 5.946 6.719 8.001 4.372z" class="cls-3" data-name="Path 7683" transform="translate(-171.974 -185.716)"/>
        </g>
        <path id="Path_7861" d="M74.011 363.6a1.913 1.913 0 0 1-.1.533 1.529 1.529 0 0 1-.711.711 2.027 2.027 0 0 1-1.366.22 1.423 1.423 0 0 1-1.06-.839 2.56 2.56 0 0 1-.149-.811c-.135-1.9-.156-3.848-.4-5.733s-.477-3.713-.711-5.569a10.54 10.54 0 0 1-.2-2.489 12.448 12.448 0 0 1 .469-2.333c.4-1.166 1.892-3.343 3.35-2.248.555.413.562.932.633 1.572.142 1.273.284 2.532.327 3.826.057 1.423.078 2.845.078 4.31 0 2.845-.071 5.74-.149 8.613-.004.1-.011.171-.011.237z" class="cls-1" data-name="Path 7861" transform="translate(44.972 -198.773)"/>
        <path id="Path_7860" d="M0 17.471a2.3 2.3 0 0 0 .669 1.593 4.545 4.545 0 0 0 2.027.982 1.422 1.422 0 0 0 .633.085.512.512 0 0 0 .263-.131.6.6 0 0 0 .135-.5 2.226 2.226 0 0 0-.313-.8 1.921 1.921 0 0 1-.284-.711 5.526 5.526 0 0 1 .135-1.743c.192-1 .377-1.991.654-2.973.135-.462.192-.953.284-1.422s.192-1.046.284-1.565c.178-1.046.334-2.091.477-3.144a15.647 15.647 0 0 0 0-5.754A2.2 2.2 0 0 0 4.531.43 1.671 1.671 0 0 0 2.518.259C.206 1.568.811 5.572.626 7.834l-.5 6.081C.036 14.968 0 16.049 0 17.471z" class="cls-1" data-name="Path 7860" transform="rotate(115.98 9.461 111.752)"/>
        <path id="Path_7816" d="M206.747 346.7a1.536 1.536 0 0 0-2.134.832 3.612 3.612 0 0 0-.242 1.195 5.772 5.772 0 0 0 0 .612 4.072 4.072 0 0 0-.711-.057 5.543 5.543 0 0 0-.91 0l.043.619a6.032 6.032 0 0 0 .868.114 2.791 2.791 0 0 0 .768 0 2.6 2.6 0 0 0 .292.925 1.579 1.579 0 0 0 1.935.775 2.29 2.29 0 0 0 .967-1.814c.148-1.072.184-2.494-.876-3.201z" class="cls-4" data-name="Path 7816" transform="translate(-88.156 -195.022)"/>
        <path id="Path_7817" d="M195.662 352.047c-.349-1.636-1.906-.967-2.845-.284a19.392 19.392 0 0 0-.925-1.743 6.876 6.876 0 0 1-.462.3 14.274 14.274 0 0 0 .939 1.828 2.632 2.632 0 0 0-.79 1.479 1.153 1.153 0 0 0 .043.541 1.088 1.088 0 0 0 .235.377 1.813 1.813 0 0 0 1.75.448 2.845 2.845 0 0 0 1.508-1.088 2.354 2.354 0 0 0 .547-1.858z" class="cls-4" data-name="Path 7817" transform="translate(-82.042 -198.161)"/>
        <path id="Path_7865" d="M64.767 345.681c1.479 0 3.08-.327 4.445-.42 1.643-.114 3.272-.306 4.908-.484 0-2.5-.413-6.942-.455-7.383-.391-4-.128-9.772-3.137-12.838a5.243 5.243 0 0 0-.974-.8c-6.209-3.89-5.69 6.11-5.356 9.467a95.932 95.932 0 0 1 .569 12.454z" class="cls-5" data-name="Path 7865" transform="translate(46.499 -192.457)"/>
        <path id="Path_7866" d="M55.93 346.066c1.273 0 2.553.1 3.848.128s2.731 0 4.09-.034a49.923 49.923 0 0 0 2.326-8.222 70.73 70.73 0 0 0 .846-9.3 8.294 8.294 0 0 0-.569-1.287 5.3 5.3 0 0 0-3.362-2.5 5.585 5.585 0 0 0-4.22.64c-1.757 1.166-1.764 2.413-1.693 4.259.204 5.372-.647 10.925-1.266 16.316z" class="cls-6" data-name="Path 7866" transform="translate(48.835 -192.981)"/>
        <path id="Path_7677" d="M297.906 368H31.761c-2.9 0-5.258 2.708-5.261 6.046 0 3.337 2.357 6.042 5.261 6.046h266.145c2.9 0 5.258-2.708 5.261-6.046-.004-3.338-2.357-6.046-5.261-6.046z" class="cls-7" data-name="Path 7677" transform="translate(-26.5 -205.487)"/>
        <path id="Path_7678" d="M287.508 175.953c-14.31-20.427-36.145-31.494-60.456-35.142-38.948-5.832-80.221 7.888-102.312 41.65a105.7 105.7 0 0 0-16.451 65.221s189.811-56.593 179.219-71.729z" class="cls-8" data-name="Path 7678" transform="translate(-62.927 -139.508)"/>
        <path id="Path_7684" d="M452.345 352.923a3 3 0 0 0-2.6.754c-1.935 1.522-2.98 3.869-3.954 6.124a30.583 30.583 0 0 0 1.835-12.454 3.7 3.7 0 0 0-1.159-2.937 2.568 2.568 0 0 0-3.08.384 5.6 5.6 0 0 0-1.5 2.945 17.889 17.889 0 0 0 .142 7.767c-.27-1.38-1.849-2.568-2.916-3.314-.939-.661-3.663-2.4-4.651-1.145a1.906 1.906 0 0 0-.356 1.223 5.563 5.563 0 0 0 .711 2.326 32.588 32.588 0 0 0 2.98 4.908 2.731 2.731 0 0 0-1.771-.6 1.252 1.252 0 0 0-.925 1.33 2.247 2.247 0 0 0 1.1 1.422 10.925 10.925 0 0 0 3.748 1.778 84.59 84.59 0 0 1 6.856.05c1.245-1.117 2.475-2.262 3.642-3.464a34.2 34.2 0 0 0 3.087-3.784 2.342 2.342 0 0 0-1.189-3.313z" class="cls-9" data-name="Path 7684" transform="translate(-185.582 -200.355)"/>
        <path id="Path_7685" d="M447.64 367.234a3.618 3.618 0 0 0 .484 0 32 32 0 0 0 .341-5.171 49.968 49.968 0 0 0-.462-4.587.057.057 0 1 0-.114 0c.011 3.236.011 6.524-.249 9.758z" class="cls-10" data-name="Path 7685" transform="translate(-161.004 -202.431)"/>
        <path id="Path_7686" d="M77.243 354.711l3.421 3a7.822 7.822 0 0 0 2.184 1.607l.256.071h2.446c2.731-2.482 4.836-6.878 5.982-9.957a8.144 8.144 0 0 0 .633-4.432 1.045 1.045 0 0 0-.349-.676 1.032 1.032 0 0 0-.669-.149 5.135 5.135 0 0 0-2.191.612 2.289 2.289 0 0 0-.491.42c.071-.178.142-.356.213-.519.5-1.188 1.423-2.632 1.074-3.94a.811.811 0 0 0-1.181-.477 5.285 5.285 0 0 0-2 2.134 47.009 47.009 0 0 0 .96-5.043 8.606 8.606 0 0 0-1.088-5.5 1.792 1.792 0 0 0-2.134-.669c-1.892.512-3.137 2.326-3.841 4.147a15.078 15.078 0 0 0-.533 8.947 7.211 7.211 0 0 0-1.906-2.7 3.384 3.384 0 0 0-2.959-.953 2.6 2.6 0 0 0-1.593 2.248 4.388 4.388 0 0 0 0 1.294 15.091 15.091 0 0 0 2.013 4.211l2.61 4.68a4.552 4.552 0 0 0-1.422-.982.868.868 0 0 0-.469-.114c-.555.071-.569.889-.292 1.366a5.954 5.954 0 0 0 1.323 1.373z" class="cls-9" data-name="Path 7686" transform="translate(-52.948 -194.823)"/>
        <path id="Path_7687" d="M88.535 359.073c-.334-6.9-.669-13.734-.59-20.733 0-.228-.185-.228-.192 0a193.873 193.873 0 0 0 .477 20.839 2.6 2.6 0 0 1 .306-.107z" class="cls-10" data-name="Path 7687" transform="translate(-57.056 -196.873)"/>
        <path id="Path_7688" d="M84.829 356.988a36.271 36.271 0 0 0 3.442 4.915l-1.074-.711c-.334-.213-.782-.42-1.088-.178a.633.633 0 0 0-.171.669 1.686 1.686 0 0 0 .377.619 17.127 17.127 0 0 0 3.137 2.724c1.508 0 3.016 0 4.523-.078l.107-.107c.462-.441 4.075-3.983 2.93-4.488a1.978 1.978 0 0 0-1.309.334 9.453 9.453 0 0 0-1.536 1.124A9.373 9.373 0 0 0 95.9 358.6a9.246 9.246 0 0 0 .825-3.393 1.359 1.359 0 0 0-.085-.533.939.939 0 0 0-.711-.526 1.565 1.565 0 0 0-.882.121 3.008 3.008 0 0 0-1.216 1.038c-.235.334-.413.711-.619 1.053a23.571 23.571 0 0 0-.085-3.748c-.114-.846-.569-1.9-1.422-1.828a1.643 1.643 0 0 0-1.074.782 8.407 8.407 0 0 0-1.422 6.4 11.732 11.732 0 0 0-1.636-3.087c-.533-.953-1.024-1.572-2.134-1.543a1.188 1.188 0 0 0-.6.164 1.252 1.252 0 0 0-.455.6 1.553 1.553 0 0 1-.1.327 2.61 2.61 0 0 0 0 1.344 5.057 5.057 0 0 0 .555 1.216z" class="cls-11" data-name="Path 7688" transform="translate(-56.053 -200.513)"/>
        <path id="Path_7689" d="M94.481 357.873c0-.22-.356-.22-.341 0 .128 2.881-.05 5.853.313 8.713a.085.085 0 1 0 .171 0 47.617 47.617 0 0 0-.143-8.713z" class="cls-10" data-name="Path 7689" transform="translate(-58.927 -202.515)"/>
        <path id="Path_7690" d="M155.884 352.7a2.041 2.041 0 0 0-1.558.206c-2.134 1.017-3.3 3.286-4.189 5.455 1.422-5.313 2.845-11.131.6-16.159a1.87 1.87 0 0 0-.512-.754c-.775-.6-1.863.149-2.454.925a11.159 11.159 0 0 0-1.828 9.246 6.92 6.92 0 0 0-3.876-3.407 2.091 2.091 0 0 0-1.422-.071c-.91.363-1.024 1.607-.839 2.568.6 3.073 2.674 5.612 4.737 7.966.846.974 1.6 2.134 2.411 3h4.751a19.353 19.353 0 0 0 4.481-5.505 4.146 4.146 0 0 0 .626-1.871 1.671 1.671 0 0 0-.928-1.599z" class="cls-9" data-name="Path 7690" transform="translate(-72.093 -197.758)"/>
        <path id="Path_7691" d="M153.042 364.519a58.555 58.555 0 0 1-.711-13.393c0-.142-.206-.142-.228 0a36.607 36.607 0 0 0 .661 13.393z" class="cls-12" data-name="Path 7691" transform="translate(-75.575 -200.584)"/>
        <path id="Path_7692" d="M340.5 351.283l.32-.619a49.333 49.333 0 0 0 3.023-7.447c.384-1.188.626-2.966-.789-3.556-.875-.384-2.056.277-2.724.8a11.651 11.651 0 0 0-2.653 2.916 11.842 11.842 0 0 0-1.64 2.623c.341-4.424.747-8.869.669-13.3-.043-2.262 0-6.863-2.845-7.582a2.6 2.6 0 0 0-1.792.263c-2.226 1.124-2.34 3.613-2.617 5.832a31.87 31.87 0 0 0 0 7.895 10.3 10.3 0 0 0-1.984-3.684 5.255 5.255 0 0 0-1.9-1.522 2.724 2.724 0 0 0-2.376.036c-2.134 1.216-2.276 4.381-1.842 6.472a21.388 21.388 0 0 0 3.755 7.632 65.65 65.65 0 0 0 4.588 6.166c.6.676 1.33.868 2 1.472a14.175 14.175 0 0 0 1.529 1.536c1.181-.036 2.361-.057 3.556-.071.341 0 1.856-2.639 2.084-2.98.546-.954 1.108-1.907 1.638-2.882z" class="cls-11" data-name="Path 7692" transform="translate(-124.479 -193.087)"/>
        <path id="Path_7693" d="M327.724 358.243a31.609 31.609 0 0 0 4.033 3.307l3.727-.1a20.666 20.666 0 0 0 3.471-4.125 3.919 3.919 0 0 0 .711-2.617 2.048 2.048 0 0 0-3.371-1.344 5.689 5.689 0 0 0-.925 1.017 1.835 1.835 0 0 1-.107-.761 51.168 51.168 0 0 0-.576-9.388c-.292-1.593-1.1-4.929-3.414-4.068a3.144 3.144 0 0 0-1.508 1.422 9.822 9.822 0 0 0-1.174 5.128c0 1.771.3 3.556.42 5.3-.078-1.1-2.134-2.845-2.923-3.556s-2.589-1.422-3.322-.164a2.184 2.184 0 0 0-.036 1.657 17.739 17.739 0 0 0 4.994 8.292z" class="cls-9" data-name="Path 7693" transform="translate(-124.893 -197.408)"/>
        <path id="Path_7694" d="M336.59 363.839l.711.043c-.107-2.312-.356-4.616-.555-6.906a63.366 63.366 0 0 0-.889-7.824c-.043-.185-.235-.142-.249.043a72.171 72.171 0 0 0 .526 9.1c.086 1.831.207 3.705.456 5.544z" class="cls-10" data-name="Path 7694" transform="translate(-128.645 -200.01)"/>
        <path id="Path_7695" d="M219.689 308.063a7.408 7.408 0 0 1-.789.277 2.375 2.375 0 0 1-1.067.107 1.2 1.2 0 0 1-.555-2.041 3.136 3.136 0 0 1 1.238-.576 7.967 7.967 0 0 0 2.881-1.7 2.454 2.454 0 0 1 .647-.505c.711-.327 1.294.327 1.117 1.081a4.822 4.822 0 0 1-1.714 2.269 7.24 7.24 0 0 1-1.757 1.088z" class="cls-13" data-name="Path 7695" transform="translate(-94.377 -186.873)"/>
        <path id="Path_7696" d="M217.571 299a3.918 3.918 0 0 0-.754.164c-.213 4.772 4.4 52.468 4.4 52.468h.349z" class="cls-4" data-name="Path 7696" transform="translate(-94.35 -185.562)"/>
        <path id="Path_7697" d="M239.493 278.294a1.024 1.024 0 0 0-.37-.548 1 1 0 0 0-.661-.085 3.6 3.6 0 0 0-2.845 1.963c-.37.6-.711 1.259-1.074 1.9-2.262 3.713-3.556 8.194-7.112 10.932a65.748 65.748 0 0 1-5.861 4.2 19.515 19.515 0 0 1 1.337 3.344 48.567 48.567 0 0 0 7.041-3.72 21.418 21.418 0 0 0 3.556-2.61 19.509 19.509 0 0 0 4.58-7.4c.94-2.37 2.284-5.408 1.409-7.976z" class="cls-5" data-name="Path 7697" transform="translate(-95.724 -179.394)"/>
        <path id="Path_7698" d="M257.66 292.079a4.473 4.473 0 0 0 1.778-2.632 12.8 12.8 0 0 0 .32-3.215c0-1.23 0-2.454-.085-3.677a9.169 9.169 0 0 0-1.067-3.243 12.457 12.457 0 0 0-.982-1.785 8.868 8.868 0 0 0-2.689-2.582 7.532 7.532 0 0 0-4.267-1.167 6.032 6.032 0 0 0-2.945.946c-.953.619-.96 1.238-1.181 2.283a14.829 14.829 0 0 0 4.566 14.154c1.652 1.522 4.492 2.234 6.552.918z" class="cls-4" data-name="Path 7698" transform="translate(-102.838 -178.279)"/>
        <path id="Path_7699" d="M226.5 367.042a2.845 2.845 0 0 0-1.607 1.422.349.349 0 0 0 .164.469 2.4 2.4 0 0 0 1.636.284c1.423-.107 4.936.043 5.775-1.067a16.126 16.126 0 0 0 1.074-5.014.747.747 0 0 0-.156-.548.79.79 0 0 0-.42-.192 7.162 7.162 0 0 0-.868-.156 1.323 1.323 0 0 0-.711.064 1.138 1.138 0 0 0-.441.491c-.462.8-.8 1.671-1.33 2.425-.802 1.111-1.925 1.246-3.116 1.822z" class="cls-4" data-name="Path 7699" transform="translate(-96.674 -203.817)"/>
        <path id="Path_7700" d="M243.012 304.826c-.811-1.045-2.909-1.3-4.011-1.06a5.171 5.171 0 0 0-3.165 2.425 13.292 13.292 0 0 0-1.423 3.8 78.813 78.813 0 0 0-2.44 18.812c-.057 6.451-.42 12.859-.754 19.289.6 0 1.195.05 1.792.092a28.7 28.7 0 0 1 3.556.206q3.393-13.037 5.69-26.373a69.176 69.176 0 0 0 1.28-11.5c0-1.423.349-4.324-.491-5.576a.8.8 0 0 0-.034-.115z" class="cls-14" data-name="Path 7700" transform="translate(-98.511 -186.914)"/>
        <path id="Path_7701" d="M263.065 365.575a11.664 11.664 0 0 0-2.674 2.845 1.487 1.487 0 0 0-.284.619.619.619 0 0 0 .27.619.925.925 0 0 0 .647.036 13.514 13.514 0 0 0 5.69-2.667.8.8 0 0 0 .242-.27.711.711 0 0 0 0-.427 9.957 9.957 0 0 0-1.422-3.307.519.519 0 0 0-.185-.206.463.463 0 0 0-.363 0c-.533.2-1.586.477-1.842 1.031s.533 1.264-.079 1.727z" class="cls-4" data-name="Path 7701" transform="translate(-106.849 -203.979)"/>
        <path id="Path_7702" d="M258 346.962c0-.043 1.721-.868 1.828-.925 1.38-.711 1.735-.676 1.792-2.077.1-2.482-2.3-6.4-3.464-8.62-1.679-3.172-4.026-6.351-4.829-9.836s.349-6.693 1.031-9.957c.868-4.09 1.238-9.132.142-13.322-.775-2.937-3.336-6.166-6.351-3.8-5.349 4.2-3.706 14.68-3.556 20.69a29.268 29.268 0 0 0 .9 7.7 28.2 28.2 0 0 0 3.677 7.269 98.396 98.396 0 0 0 4.979 6.927 62.04 62.04 0 0 1 3.851 5.951z" class="cls-15" data-name="Path 7702" transform="translate(-102.271 -185.16)"/>
        <path id="Path_7703" d="M264.491 291.352a37.583 37.583 0 0 1 .078 8.179 15.177 15.177 0 0 1-.284 2.6 1.359 1.359 0 0 1-.448.861 1.06 1.06 0 0 1-1.423-.448 3.413 3.413 0 0 1-.32-1.607 19.509 19.509 0 0 0-3.165-9.694 13.657 13.657 0 0 0-1.551-2.056 5.034 5.034 0 0 0-1.508-.853 10.505 10.505 0 0 1-3.521-3.592 10.13 10.13 0 0 1-1.166-2.319 5.635 5.635 0 0 1-.277-1.174 2.987 2.987 0 0 0-.135-1.031 3.293 3.293 0 0 1-.277-1.159 1.245 1.245 0 0 1 .349-1.067.982.982 0 0 1 .782-.164 2.32 2.32 0 0 1 .768.306 33.315 33.315 0 0 1 5.733 4.061 32.87 32.87 0 0 1 4.751 5.092 9.353 9.353 0 0 1 1.615 4.061z" class="cls-6" data-name="Path 7703" transform="translate(-104.072 -179.443)"/>
        <path id="Path_7704" d="M251.689 299.386l-15.349.775c.164-1.849.32-3.7.484-5.548.356-4.04.711-8.137 2.134-11.928.541-1.422.526-3.186 1.593-4.267a6.152 6.152 0 0 1 4.794-1.344c3.9.676 3.414 1.423 4.353 2.966a15.364 15.364 0 0 1 1.643 5.206 100.348 100.348 0 0 1 1.351 11.287c.099 1.246.561 2.775-1.003 2.853z" class="cls-6" data-name="Path 7704" transform="translate(-99.989 -179.213)"/>
        <path id="Path_7705" d="M218.3 306.965a1 1 0 0 0-.356-.377 1.181 1.181 0 0 0-.8-.1 2.034 2.034 0 0 0-1.565 1.223c-.555 1.785 2.71 2.183 2.987.711a1.984 1.984 0 0 0-.043-.789 2.027 2.027 0 0 0-.223-.668z" class="cls-13" data-name="Path 7705" transform="translate(-93.977 -187.716)"/>
        <path id="Path_7706" d="M256.958 289.616a6.536 6.536 0 0 0-.555-.349l-.05-.05c-.128-.164-.213-.363-.405-.455a10.313 10.313 0 0 1-2.575-5.014c-.42-2.546.4-4.808 1.522-7.041.114-.22-.178-.484-.363-.277-3.371 3.691-2.632 10.512 1.366 13.514l.078.043a1.593 1.593 0 0 0 .711.348.384.384 0 0 0 .27-.718z" class="cls-4" data-name="Path 7706" transform="translate(-104.625 -179.024)"/>
        <path id="Path_7707" d="M241.819 278.41a2.131 2.131 0 0 0-.519.206c-1.323 1.65-1.508 3.805-1.992 5.811a30.761 30.761 0 0 0-.768 4.018 9.205 9.205 0 0 0 1.053-1.977c.3-1.309.612-2.61.953-3.912a14.225 14.225 0 0 1 1.294-3.77.356.356 0 0 0-.021-.377z" class="cls-4" data-name="Path 7707" transform="translate(-100.624 -179.617)"/>
        <path id="Path_7708" d="M246.291 269.045c.185-1.138.626-2.24.142-3.357a3.239 3.239 0 0 0-5.526-.5 4.268 4.268 0 0 0-.164 4.566c.768 1.124 1.671 1.721 1.984 3.137.149.711.213 1.422.363 2.134a2.78 2.78 0 0 0 .341.925c.341.526.747.526 1.309.477.953-.078 1.792-.349 2.013-1.422a3.77 3.77 0 0 0-.064-1.351 16.87 16.87 0 0 1-.455-4.125c.014-.163.028-.329.057-.484z" class="cls-1" data-name="Path 7708" transform="translate(-101.092 -175.416)"/>
        <path id="Path_7709" d="M246.618 263.753c-.9-1.446-3.383-1.181-3.343-1.024a1.956 1.956 0 0 0-1.259.185 3.639 3.639 0 0 0-.626.228 1.657 1.657 0 0 1-.711.05 1.636 1.636 0 0 0-1.814.59 1.49 1.49 0 0 0 1.252 2.326.967.967 0 0 0 .619.164c1.1-.036 1.871-1.081 3.115-.711h.078a4.979 4.979 0 0 1 .96 1.572c.306.711.334 1.913 1.2 2.191a.391.391 0 0 0 .37-.1 2.247 2.247 0 0 0 .413-.711 4.494 4.494 0 0 0-.254-4.76z" class="cls-16" data-name="Path 7709" transform="translate(-100.637 -175.052)"/>
        <path id="Path_7710" d="M247.828 268.732a.711.711 0 0 0-1.245.5h-.092a.363.363 0 0 0 .085.654c.59.233 1.835-.464 1.252-1.154z" class="cls-1" data-name="Path 7710" transform="translate(-102.871 -176.753)"/>
        <path id="Path_7711" d="M243.346 271.5a.512.512 0 0 1-.711.178c-.149-.085-.235-.213-.4-.277s-.135.057-.121.128c.092.612 1.28.711 1.422.05a.1.1 0 1 0-.192-.078z" class="cls-4" data-name="Path 7711" transform="translate(-101.653 -177.588)"/>
        <path id="Path_7712" d="M247.365 369.709a3.08 3.08 0 0 0-1.693 1.422.42.42 0 0 0-.043.228.441.441 0 0 0 .178.249 2.276 2.276 0 0 0 1.615.292 52.776 52.776 0 0 0 5.164-.661 1.16 1.16 0 0 0 .434-.142 1.052 1.052 0 0 0 .341-.477c.22-.484 1.01-2.134.676-2.624s-1.629-.4-2.07-.32a21.916 21.916 0 0 0-4.602 2.033z" class="cls-11" data-name="Path 7712" transform="translate(-102.671 -205.375)"/>
        <path id="Path_7713" d="M247.212 299.553a4.269 4.269 0 0 0-.775.711 3.236 3.236 0 0 0-.782 1.273 1.579 1.579 0 0 0 .142 1.216 1.145 1.145 0 0 0 1.06.548 1.543 1.543 0 0 0 .981-.654 9.2 9.2 0 0 1 .711-.989 12.719 12.719 0 0 1 1.053-.9 1.422 1.422 0 0 0 .583-1.131c-.128-1.461-2.333-.508-2.973-.074z" class="cls-1" data-name="Path 7713" transform="translate(-102.661 -185.518)"/>
        <path id="Path_7714" d="M260.575 275.012a14.367 14.367 0 0 0-1.209 4.154c-.107.825-.327 1.607-.384 2.44a8.216 8.216 0 0 1-.4 2.6 7.824 7.824 0 0 1-2.027 2.71 21.806 21.806 0 0 1-6.01 3.642c-.619.27-.953.412-1.117.654.292.953.59 1.9.889 2.845a83.2 83.2 0 0 0 9.716-3.336 6.835 6.835 0 0 0 2.461-1.423 6.578 6.578 0 0 0 1.423-2.845 31.358 31.358 0 0 0 1.053-11.835c-.071-.676-.462-2.248-1.323-2.39a1.913 1.913 0 0 0-1.508.469 4.608 4.608 0 0 0-.989 1.28 7.645 7.645 0 0 0-.575 1.035z" class="cls-17" data-name="Path 7714" transform="translate(-103.769 -177.827)"/>
        <path id="Path_7715" d="M282.843 286.717a4.438 4.438 0 0 0 1.778-2.632 12.8 12.8 0 0 0 .32-3.215 46.5 46.5 0 0 0-.263-5.69c-.078-.711-.2-1.422-.327-2.134a13.2 13.2 0 0 1-.477-1.949 8.655 8.655 0 0 1 .263-1.807 5.69 5.69 0 0 0-1.209-4.9 5.562 5.562 0 0 0-3.428-1.6 7.482 7.482 0 0 0-7.824 4.73 10.628 10.628 0 0 0-.533 2.134c-.9 5.768.711 12.2 5.142 16.209 1.658 1.458 4.502 2.169 6.558.854z" class="cls-5" data-name="Path 7715" transform="translate(-109.97 -175.093)"/>
        <path id="Path_7716" d="M266.845 301.006a7.468 7.468 0 0 0-1.486-3.947 5.4 5.4 0 0 0-3.144-1.9 3.649 3.649 0 0 0-2.24.711 7.113 7.113 0 0 0-2.56 3.791 21.335 21.335 0 0 0-.711 4.595c-.185 2.3-.413 4.587-.669 6.878q-2.006 17.987-4 35.96l4.872.661q4.63-14.381 8.03-29.125c1.297-5.768 2.527-11.713 1.908-17.624z" class="cls-12" data-name="Path 7716" transform="translate(-104.52 -184.453)"/>
        <path id="Path_7717" d="M284.015 368.916a13.322 13.322 0 0 0-2.845 2.88 1.686 1.686 0 0 0-.327.633.6.6 0 0 0 .235.633.875.875 0 0 0 .647.036 14.488 14.488 0 0 0 5.875-2.724.946.946 0 0 0 .256-.277.839.839 0 0 0 .043-.441 9.729 9.729 0 0 0-1.238-3.386.341.341 0 0 0-.533-.178c-.548.206-1.622.491-1.913 1.053s.448 1.301-.2 1.771z" class="cls-11" data-name="Path 7717" transform="translate(-112.835 -204.916)"/>
        <path id="Path_7718" d="M283.935 347.1a7.938 7.938 0 0 1-4.445.548c-4.267-8.677-6.131-18.286-8.5-27.66-1.422-5.69-2.916-11.444-4.1-17.233-.228-1.088-.96-2.845-.263-3.748a9.123 9.123 0 0 1 2.56-1.629c2.1-1.117 4.708-2.518 7.112-1.714 1.863.612 2.063 2.881 2.411 4.595a138.131 138.131 0 0 1 2.013 16.942c.448 5.669 1.1 11.223 1.906 16.785.42 2.952.839 5.9 1.159 8.869.09.455.738 3.982.147 4.245z" class="cls-10" data-name="Path 7718" transform="translate(-108.651 -184.53)"/>
        <path id="Path_7719" d="M281.741 305a6.764 6.764 0 0 0-.925.156c-.263 4.552 5.391 50.342 5.391 50.342h.427z" class="cls-4" data-name="Path 7719" transform="translate(-112.829 -187.295)"/>
        <path id="Path_7720" d="M264.89 292.726c1.195-.071 2.39-.149 3.592-.2 2.845-.121 5.633-.128 8.45-.27.05-2.44.164-4.886.085-7.269-.107-3.492.064-6.991-.242-10.469a6.551 6.551 0 0 0-1.266-3.855 7.113 7.113 0 0 0-3.222-2.376 7.212 7.212 0 0 0-4.737 0 6.4 6.4 0 0 0-3.471 2.9 26.088 26.088 0 0 0-3.556 9.723c-.711 3.812-.946 7.7-1.643 11.515 2.013.088 4.004.23 6.01.301z" class="cls-18" data-name="Path 7720" transform="translate(-106.498 -176.579)"/>
        <path id="Path_7721" d="M281.659 300.914a5.691 5.691 0 0 0-1.2 1.309 1.892 1.892 0 0 0-.178 1.707 1.159 1.159 0 0 0 1.465.626 2.076 2.076 0 0 0 .8-1 11.68 11.68 0 0 1 1.522-2.233 2.235 2.235 0 0 0 .363-.5.654.654 0 0 0 0-.6c-.249-.377-1.053-.341-1.422-.249a3.371 3.371 0 0 0-1.35.94z" class="cls-1" data-name="Path 7721" transform="translate(-112.64 -185.826)"/>
        <path id="Path_7722" d="M291.558 282.674c-.469 3.933-5.526 7.952-7.824 10.341a.655.655 0 0 1-.178.135.577.577 0 0 1-.6-.149c-2.134-1.422-1.878-1.9-.491-3.94a62.394 62.394 0 0 0 2.845-4.559c.711-1.252 1.422-1.8.484-2.994-.64-.846-1.942-1.344-2.8-1.927a12.653 12.653 0 0 1-3.414-3.556 10.27 10.27 0 0 1-1.167-2.319 5.629 5.629 0 0 1-.277-1.174A2.987 2.987 0 0 0 278 271.5a3.457 3.457 0 0 1-.277-1.159 1.245 1.245 0 0 1 .349-1.067.988.988 0 0 1 .789-.164 2.345 2.345 0 0 1 .761.306 33.313 33.313 0 0 1 5.733 4.061 32.221 32.221 0 0 1 4.751 5.092 8.692 8.692 0 0 1 1.117 1.821 4.4 4.4 0 0 1 .335 2.284z" class="cls-18" data-name="Path 7722" transform="translate(-111.935 -176.925)"/>
        <path id="Path_7723" d="M283.275 281.876q-.269-.188-.555-.349l-.05-.05c-.128-.164-.213-.363-.405-.455a10.32 10.32 0 0 1-2.582-5.014c-.42-2.546.405-4.808 1.522-7.041.114-.221-.178-.484-.363-.277-3.371 3.691-2.632 10.512 1.366 13.514l.078.043a1.629 1.629 0 0 0 .711.348.385.385 0 1 0 .277-.718z" class="cls-5" data-name="Path 7723" transform="translate(-112.223 -176.789)"/>
        <path id="Path_7724" d="M271.766 258.441c.235-1.7.5-3.556-.3-4.879-1.522-2.575-5.491-2.7-6.607.277a9.5 9.5 0 0 0-.434 3.108 4.043 4.043 0 0 0 .761 3.058 6.393 6.393 0 0 1 .711.654 2.375 2.375 0 0 1 .327.711 19.976 19.976 0 0 1 .861 3.158c.107.711 0 2.184.811 2.589a1.991 1.991 0 0 0 1.28.27 4.5 4.5 0 0 0 2.745-1.2 1.466 1.466 0 0 0 .427-.59 1.906 1.906 0 0 0-.107-1.152 13.428 13.428 0 0 1-.711-3.99 15.481 15.481 0 0 1 .236-2.014z" class="cls-1" data-name="Path 7724" transform="translate(-108.097 -171.881)"/>
        <path id="Path_7725" d="M271.82 252.118a4.781 4.781 0 0 0-4.452-1.422 9.707 9.707 0 0 1-1.92.405 6.539 6.539 0 0 0-1.287.185 1.579 1.579 0 0 0-1 .761 1.28 1.28 0 0 0 .967 1.707 5.689 5.689 0 0 0 1.8.078c.711-.036 1.422-.1 2.134-.121a3.1 3.1 0 0 1 1.572.206.541.541 0 0 1 .32.427l.164 1.465a2.183 2.183 0 0 0 .462 1.351c.242.256.91.533 1.2.213s.114-1.287.142-1.593c.062-.818.478-2.973-.102-3.662z" class="cls-4" data-name="Path 7725" transform="translate(-107.709 -171.575)"/>
        <path id="Path_7726" d="M273.293 257.563c-.505-.711-1.977.149-1.422.974a1.017 1.017 0 0 0 1.273.2.747.747 0 0 0 .149-1.174z" class="cls-1" data-name="Path 7726" transform="translate(-110.213 -173.521)"/>
        <path id="Path_7727" d="M267.039 260.659a1.188 1.188 0 0 1-1.657.206c-.164-.128-.4.085-.235.235a1.38 1.38 0 0 0 2.134-.242.164.164 0 0 0-.242-.2z" class="cls-4" data-name="Path 7727" transform="translate(-108.291 -174.483)"/>
        <path id="Path_7730" d="M377.118 277.27a14.406 14.406 0 0 1 .583-3.556 8.62 8.62 0 0 0 .469-4.424c-.249-1.245-.669-2.646-2.034-3.037a2.888 2.888 0 0 0-2.553.569 3.826 3.826 0 0 0-1.309 2.319 7.823 7.823 0 0 0 0 2 10.23 10.23 0 0 0 .555 2.93 7.112 7.112 0 0 1 .6 2.845 12.868 12.868 0 0 0-.036 1.657 6.017 6.017 0 0 0 .469 1.472 1.821 1.821 0 0 0 .882 1.124 1.422 1.422 0 0 0 1.565-.491 3.371 3.371 0 0 0 .612-1.622c.118-.576.118-1.181.197-1.786z" class="cls-1" data-name="Path 7730" transform="translate(-139.223 -176.081)"/>
        <path id="Path_7731" d="M367.594 275.12a6.4 6.4 0 0 0-.569-1.735q-1-2.29-2.134-4.538a20.251 20.251 0 0 1-1.9-4.2 24.707 24.707 0 0 1-.349-7.7 5.085 5.085 0 0 1 .349-1.721 23.554 23.554 0 0 1 1.622-2.3 2.8 2.8 0 0 0 .434-1.188c0-.27-.363-.8-.583-.32-.156.341-.889 1.885-1.188 1.024-.221-.633.37-1.757.484-2.354.228-1.166-.711-2.945-1.949-1.622a3.3 3.3 0 0 0-.626 1.166 23.385 23.385 0 0 0-1 3.457c-.327 1.6-.633 3.208-.846 4.829a26.6 26.6 0 0 0 .3 9.723 20.821 20.821 0 0 0 .9 2.6 27.1 27.1 0 0 0 2.738 5.491 4.325 4.325 0 0 0 1.529 1.572 2.169 2.169 0 0 0 2.44-.441 2.311 2.311 0 0 0 .349-1.75z" class="cls-1" data-name="Path 7731" transform="translate(-135.417 -170.836)"/>
        <path id="Path_7732" d="M363.682 367.307a9.327 9.327 0 0 1-.128 1.615 2.055 2.055 0 0 1-1.586 1.622 14.335 14.335 0 0 0-2.8 1.01c-.334.2-.711.541-.5.917a1.22 1.22 0 0 0 1.081.462 30 30 0 0 0 3.841-.085 18.765 18.765 0 0 0 2.3-.178c.384-.085 1.195-.142 1.351-.484a.79.79 0 0 0 0-.512 17.511 17.511 0 0 1-.32-3.734c0-.882.164-2.1-1-2.653a1.5 1.5 0 0 0-1.7.334 2.475 2.475 0 0 0-.548 1.579.53.53 0 0 1 .009.107z" class="cls-4" data-name="Path 7732" transform="translate(-135.296 -204.665)"/>
        <path id="Path_7733" d="M371.384 342.221c.654-5.263.925-10.633 2.262-15.761 1.351-5.377 3.364-9.765 3.243-15.2a5.648 5.648 0 0 0-.918-3.144 3.173 3.173 0 0 0-1.223-1.11 8.867 8.867 0 0 0-4.915-1.7c-.64 0-.974-2.176-1.622-1.024a19.386 19.386 0 0 0-1.728 4.232 37.688 37.688 0 0 0-.967 5.846 126.08 126.08 0 0 0-.516 14.76c.043 7.39-.285 14.652-.427 22.048 1.778-.057 3.514.256 5.292.277.164 0 1.031-5.768 1.117-6.316.153-.973.295-1.941.402-2.908z" class="cls-11" data-name="Path 7733" transform="translate(-137.016 -186.991)"/>
        <path id="Path_7735" d="M383.26 366.806v.711a8.309 8.309 0 0 0 .092 1.33 10.359 10.359 0 0 1 0 2.347 1.323 1.323 0 0 0 .128 1.01 1.017 1.017 0 0 0 .5.313 10.966 10.966 0 0 0 2.532.313 21.593 21.593 0 0 0 2.354.192 4.489 4.489 0 0 0 2.134-.228 1 1 0 0 0 .548-.925 1.067 1.067 0 0 0-.583-.8 3.145 3.145 0 0 0-.982-.3c-1.273-.235-2.653-.669-2.966-2.134-.206-.932.149-1.97-.263-2.845a2.042 2.042 0 0 0-.576-.711 1.65 1.65 0 0 0-2.632.491 2.574 2.574 0 0 0-.292 1.23z" class="cls-4" data-name="Path 7735" transform="translate(-142.413 -204.513)"/>
        <path id="Path_7736" d="M384.463 334.037c-.185-3.151-.256-5.932-.448-9.2-.37-6.273 0-12.347-2.134-18.364a5.477 5.477 0 0 0-.654-1.344 3.606 3.606 0 0 0-3.791-1.129c-.178-.448-.8-.085-1.166 0a12.556 12.556 0 0 1-1.792 0 1.871 1.871 0 0 0-1.458 1.131 3.556 3.556 0 0 0-.164 1.373 46.784 46.784 0 0 0 .519 6.223c.548 3.556 1.423 7.056 2.077 10.6s1.294 7.34 1.835 11.024c.327 2.255.626 4.4.925 6.693.6 3.293 1.245 6.572 1.593 9.893a25.229 25.229 0 0 0 3.556-.213l1.109-.05c.121-5.528-.021-11.074-.007-16.637z" class="cls-20" data-name="Path 7736" transform="translate(-139.406 -186.943)"/>
        <path id="Path_7737" d="M372.413 299.863a50.967 50.967 0 0 0 7.788-.626c0-1.671.1-3.343.085-5.014 0-2.845-.626-5.633-.9-8.464a5.1 5.1 0 0 0-5.306-3.257h-.036a5.6 5.6 0 0 0-4.68 4.054 31.216 31.216 0 0 0-1.259 6.323c0 2.3.121 4.6.142 6.906 1.385-.007 2.772.135 4.166.078z" class="cls-10" data-name="Path 7737" transform="translate(-138.039 -180.793)"/>
        <path id="Path_7738" d="M374.77 275.46a.711.711 0 0 0 .22.313 1.842 1.842 0 0 0 .59.4 1.018 1.018 0 0 0 1.33-.711z" class="cls-18" data-name="Path 7738" transform="translate(-139.962 -178.765)"/>
        <path id="Path_7740" d="M381.092 273.326a.633.633 0 0 0-.711-.391l-.1.05c-.583.171-.875 1.124-.192 1.373a.818.818 0 0 0 1-1.031z" class="cls-1" data-name="Path 7740" transform="translate(-141.384 -178.033)"/>
        <path id="Path_7741" d="M393.324 312.019c.036-.669.121-1.33.185-1.991.1-1.166.142-2.333.213-3.5.213-3.606-.982-6.856-2.219-10.192l-.711-1.807a34.626 34.626 0 0 0-.8-2.027 20.12 20.12 0 0 0-1.771-3.236c-.455-.676-1.159-1.693-1.992-.9a3.926 3.926 0 0 0-1.422 2.674 7.356 7.356 0 0 0 1.23 3.393l.05.085q.5.91.96 1.835c2.269 4.523 3.841 7.617 4.4 14.815.043.5.064 1 .092 1.5a1.8 1.8 0 0 0 .775 1.145 1.024 1.024 0 0 0 .462.235.455.455 0 0 0 .462-.171c.149-.213.064-.5.043-.711a7.421 7.421 0 0 1 0-1.053z" class="cls-1" data-name="Path 7741" transform="translate(-142.861 -182.408)"/>
        <path id="Path_7742" d="M377.732 282.648a3.365 3.365 0 0 0-.057-.448 11.772 11.772 0 0 1-.156-2 2.489 2.489 0 0 0-.306-1.508c-.341-.576-1.159-.555-1.728-.455a3.86 3.86 0 0 0-.925.284 2.069 2.069 0 0 0-.711.441 21.827 21.827 0 0 1-.448 4.545 1.252 1.252 0 0 0 .149.413 2.055 2.055 0 0 0 1.906.754 2.845 2.845 0 0 0 1.686-.526 1.593 1.593 0 0 0 .59-1.5z" class="cls-1" data-name="Path 7742" transform="translate(-139.566 -179.551)"/>
        <path id="Path_7743" d="M369.951 282.92c-.541-.882-1.06-1.771-1.572-2.66q-1.479.989-2.952 2c-.455.306-.96.59-1.422.946-.612.491-.619.427-.277 1.166a43.459 43.459 0 0 0 2.247 4.2c.505.832.982 1.664 1.458 2.511a2.746 2.746 0 0 0 .967.989c.669.348 1.174-3.5 1.259-4.054.242-1.572.242-3.165.327-4.744z" class="cls-10" data-name="Path 7743" transform="translate(-136.708 -180.151)"/>
        <path id="Path_7744" d="M387.738 287.908a.333.333 0 0 0 0-.114c-1.11-2.134-4.787-4.694-7.418-4.794-.185.868.661 10.228 1.06 10.171 1.487-.213 2.888 2.091 4.267 2.845.633-2.716 1.294-5.434 2.091-8.108z" class="cls-10" data-name="Path 7744" transform="translate(-141.557 -180.942)"/>
        <path id="Path_7755" d="M397.247 325.1a17.773 17.773 0 0 0-.861-2.048 6.273 6.273 0 0 1-.37-2.2c0-.832.078-1.664.092-2.5a2.034 2.034 0 0 0-.107-.875.711.711 0 0 0-1.117-.327 1.956 1.956 0 0 0-.541 1.1 8.575 8.575 0 0 0-.057 2.048 9.961 9.961 0 0 1-.135 1.785 15.412 15.412 0 0 0-.263 1.622 4.39 4.39 0 0 0 .384 1.7c.164.434.854.256.711-.192a6.2 6.2 0 0 1-.2-.8.64.64 0 0 1 .064-.249 5.541 5.541 0 0 0 1.153 2.094c.59.541 1.316.121 1.316-.711a1.657 1.657 0 0 0-.064-.448z" class="cls-1" data-name="Path 7755" transform="translate(-145.483 -190.758)"/>
        <path id="Path_7756" d="M74.011 363.6a1.913 1.913 0 0 1-.1.533 1.529 1.529 0 0 1-.711.711 2.027 2.027 0 0 1-1.366.22 1.423 1.423 0 0 1-1.06-.839 2.56 2.56 0 0 1-.149-.811c-.135-1.9-.156-3.848-.4-5.733s-.477-3.713-.711-5.569a10.54 10.54 0 0 1-.2-2.489 12.448 12.448 0 0 1 .469-2.333c.4-1.166 1.892-3.343 3.35-2.248.555.413.562.932.633 1.572.142 1.273.284 2.532.327 3.826.057 1.423.078 2.845.078 4.31 0 2.845-.071 5.74-.149 8.613-.004.1-.011.171-.011.237z" class="cls-1" data-name="Path 7756" transform="translate(-51.757 -198.773)"/>
        <path id="Path_7757" d="M58 364.907a2.3 2.3 0 0 0 .669 1.593 4.545 4.545 0 0 0 2.027.982 1.422 1.422 0 0 0 .633.085.512.512 0 0 0 .263-.128.6.6 0 0 0 .135-.505 2.225 2.225 0 0 0-.313-.8 1.921 1.921 0 0 1-.284-.711 5.526 5.526 0 0 1 .135-1.742c.192-1 .377-1.991.654-2.973.135-.462.192-.953.284-1.423s.192-1.046.284-1.565c.178-1.045.334-2.091.477-3.144a15.647 15.647 0 0 0 0-5.754 2.2 2.2 0 0 0-.434-.953 1.671 1.671 0 0 0-2.013-.171c-2.312 1.309-1.707 5.313-1.892 7.575l-.5 6.081c-.089 1.046-.125 2.13-.125 3.553z" class="cls-1" data-name="Path 7757" transform="translate(-48.492 -199.549)"/>
        <path id="Path_7758" d="M64.767 345.681c1.479 0 3.08-.327 4.445-.42 1.643-.114 3.272-.306 4.908-.484 0-2.5-.413-6.942-.455-7.383-.391-4-.128-9.772-3.137-12.838a5.243 5.243 0 0 0-.974-.8c-6.209-3.89-5.69 6.11-5.356 9.467a95.932 95.932 0 0 1 .569 12.454z" class="cls-5" data-name="Path 7758" transform="translate(-50.23 -192.457)"/>
        <path id="Path_7759" d="M55.93 347.251c1.273 0 2.553.107 3.848.135s2.731 0 4.09-.036a54.965 54.965 0 0 0 2.326-8.677 78.678 78.678 0 0 0 .846-9.815 9.006 9.006 0 0 0-.569-1.358 5.334 5.334 0 0 0-7.582-1.963c-1.757 1.23-1.764 2.546-1.693 4.5.204 5.663-.647 11.524-1.266 17.214z" class="cls-6" data-name="Path 7759" transform="translate(-47.894 -192.981)"/>
        <path id="Path_7760" d="M76.535 318.153a8.621 8.621 0 0 0 4.538 0 23.094 23.094 0 0 0 2.383-.64 2.966 2.966 0 0 0 1.074-.626c.27-.292.469-.654.711-.96a3.037 3.037 0 0 1 2.468-.882.94.94 0 0 1 .882.391.711.711 0 0 1-.149.711c-.156.206-.37.356-.541.548a5.144 5.144 0 0 0-.5.91 3.669 3.669 0 0 1-.811 1 2.539 2.539 0 0 1-.526.334 27.743 27.743 0 0 0-2.945 1.266c-3.279 1.821-7.056 2.134-10.341.057a9.109 9.109 0 0 1-4.147-6.074c-.114-1.046.768-1 1.529-.576.989.548 1.622 1.728 2.5 2.461a10.307 10.307 0 0 0 3.883 2.077z" class="cls-13" data-name="Path 7760" transform="translate(-51.557 -189.701)"/>
        <path id="Path_7761" d="M55.979 329.786a13.4 13.4 0 0 1 1.131.8 12.961 12.961 0 0 0 1.422-1.835l-.356-.27a8.059 8.059 0 0 1-2.376-3.137 12.462 12.462 0 0 1-.96-3.435 14.282 14.282 0 0 1 1.422-6.885c.768-1.842-1.956-3.243-2.8-1.422a15.6 15.6 0 0 0-1.046 10.3 13.171 13.171 0 0 0 1.977 4.054 8.208 8.208 0 0 0 1.586 1.83z" class="cls-13" data-name="Path 7761" transform="translate(-46.755 -189.534)"/>
        <path id="Path_7762" d="M62.109 322.87c2.845-.2 5.74-.3 8.585-.533-.114-1.956-.32-4.388-.441-6.344a32.1 32.1 0 0 0-.946-6.145 21.511 21.511 0 0 0-.711-2.212c-.057-.142-.185-.526-.363-.967a5.519 5.519 0 0 0-2.5-2.4c-1.906-.839-4.452.711-5.512 2.3a10.162 10.162 0 0 0-1.216 2.845 38.72 38.72 0 0 0-1.166 7.24c-.05.477-.341 4.538-.391 6.522 1.56-.128 3.124-.199 4.661-.306z" class="cls-20" data-name="Path 7762" transform="translate(-48.333 -187.015)"/>
        <path id="Path_7856" d="M62.109 322.87c2.845-.2 5.74-.3 8.585-.533-.114-1.956-.32-4.388-.441-6.344a29.07 29.07 0 0 0-.582-5.883c-.2-.711 2.179-1.319 1.887-2.044-.038-.1-.112-2.18-1.305-2.621-.27-.126-1.16.521-2.02 1.223a5.519 5.519 0 0 0-2.5-2.4c-1.906-.839-4.452.711-5.512 2.3a10.162 10.162 0 0 0-1.216 2.845 38.72 38.72 0 0 0-1.166 7.24c-.05.477-.341 4.538-.391 6.522 1.56-.127 3.124-.198 4.661-.305z" class="cls-21" data-name="Path 7856" transform="translate(48.396 -187.015)"/>
        <path id="Path_7763" d="M62.147 304.8a1.707 1.707 0 0 0-.918-.22 7.823 7.823 0 0 0-4.018 1.42 12.091 12.091 0 0 0-3.371 3.343 14.787 14.787 0 0 0-1.181 2.112 12.041 12.041 0 0 0-.839 2.2 26.35 26.35 0 0 0 4.4 2.184 3.855 3.855 0 0 1 1.536-2.191c.377-.235.818-.263 1.2-.512a5.15 5.15 0 0 0 1.664-2.525 29.742 29.742 0 0 1 1.551-4.154c.164-.277.434-.533.462-.868a.91.91 0 0 0-.484-.8z" class="cls-20" data-name="Path 7763" transform="translate(-46.707 -187.173)"/>
        <path id="Path_7857" d="M62.147 304.8a1.707 1.707 0 0 0-.918-.22 7.823 7.823 0 0 0-4.018 1.42 12.091 12.091 0 0 0-3.371 3.343 14.787 14.787 0 0 0-1.181 2.112 12.041 12.041 0 0 0-.839 2.2 26.35 26.35 0 0 0 4.4 2.184 3.855 3.855 0 0 1 1.536-2.191c.377-.235.818-.263 1.2-.512a5.15 5.15 0 0 0 1.664-2.525 29.742 29.742 0 0 1 1.551-4.154c.164-.277.434-.533.462-.868a.91.91 0 0 0-.484-.8z" class="cls-21" data-name="Path 7857" transform="translate(50.022 -187.173)"/>
        <path id="Path_7764" d="M66.3 295.55a.612.612 0 1 1-.612.612.612.612 0 0 1 .612-.612z" class="cls-22" data-name="Path 7764" transform="translate(-50.712 -184.566)"/>
        <path id="Path_7765" d="M68.268 297.916a.562.562 0 0 1 .114-.32.711.711 0 0 1 .42-.171 1.6 1.6 0 0 0 1.024-.96 3.471 3.471 0 0 0 .2-1.422 8.044 8.044 0 0 0-.349-2.1 4.252 4.252 0 0 0-2.923-3.137 3.243 3.243 0 0 0-3.35 1.771 4.481 4.481 0 0 0 .085 3.926 10.01 10.01 0 0 1 .711 1.5 5.149 5.149 0 0 1 .128 1.422v3.371a2.439 2.439 0 0 0 .4 1.636 2.248 2.248 0 0 0 1.721.541 2.013 2.013 0 0 0 .967-.156c.818-.434.541-1.75.562-2.482a30.154 30.154 0 0 1 .292-3.421z" class="cls-13" data-name="Path 7765" transform="translate(-49.933 -182.899)"/>
        <path id="Path_7862" d="M68.268 297.916a.562.562 0 0 1 .114-.32.711.711 0 0 1 .42-.171 1.6 1.6 0 0 0 1.024-.96 3.471 3.471 0 0 0 .2-1.422 8.044 8.044 0 0 0-.349-2.1 4.252 4.252 0 0 0-2.923-3.137 3.243 3.243 0 0 0-3.35 1.771 4.481 4.481 0 0 0 .085 3.926 10.01 10.01 0 0 1 .711 1.5 5.149 5.149 0 0 1 .128 1.422v3.371a2.439 2.439 0 0 0 .4 1.636 2.248 2.248 0 0 0 1.721.541 2.013 2.013 0 0 0 .967-.156c.818-.434.541-1.75.562-2.482a30.154 30.154 0 0 1 .292-3.421z" class="cls-1" data-name="Path 7862" transform="translate(46.796 -182.899)"/>
        <path id="Path_7766" d="M67.049 287.78c-.669 0-1.33.256-2.006.277-.5 0-1-.107-1.508-.121a2.511 2.511 0 0 0-2.845 2.564 1.743 1.743 0 0 0-1.23 1.7 2.781 2.781 0 0 0 1.714 2.34 2.539 2.539 0 0 0-.064.768 1.743 1.743 0 0 0 .541 1.252 1.828 1.828 0 0 0 1.472.2 3.279 3.279 0 0 0 .818-.285 2.639 2.639 0 0 0 1.238-1.828 4.872 4.872 0 0 0-.121-1.927 3.066 3.066 0 0 0 2.134-.761 4.374 4.374 0 0 1 .974-1.038 1.821 1.821 0 0 0 .619-1.487 1.849 1.849 0 0 0-1.515-1.629.9.9 0 0 0-.22-.029z" class="cls-4" data-name="Path 7766" transform="translate(-48.913 -182.323)"/>
        <path id="Path_7863" d="M67.049 287.78c-.669 0-1.33.256-2.006.277-.5 0-1-.107-1.508-.121a2.511 2.511 0 0 0-2.845 2.564 1.743 1.743 0 0 0-1.23 1.7 2.781 2.781 0 0 0 1.714 2.34 2.539 2.539 0 0 0-.064.768 1.743 1.743 0 0 0 .541 1.252 1.828 1.828 0 0 0 1.472.2 3.279 3.279 0 0 0 .818-.285 2.639 2.639 0 0 0 1.238-1.828 4.872 4.872 0 0 0-.121-1.927 3.066 3.066 0 0 0 2.134-.761 4.374 4.374 0 0 1 .974-1.038 1.821 1.821 0 0 0 .619-1.487 1.849 1.849 0 0 0-1.515-1.629.9.9 0 0 0-.22-.029z" class="cls-23" data-name="Path 7863" transform="translate(47.816 -182.323)"/>
        <path id="Path_7767" d="M66.785 294.46a.825.825 0 1 0 .825.825.825.825 0 0 0-.825-.825z" class="cls-13" data-name="Path 7767" transform="translate(-50.79 -184.252)"/>
        <path id="Path_7768" d="M71.482 297.186c-.156.434-.512.5-.925.405a.121.121 0 0 0-.114.206.9.9 0 0 0 1.422-.512.2.2 0 0 0-.384-.1z" class="cls-4" data-name="Path 7768" transform="translate(-52.073 -185)"/>
        <path id="Path_7769" d="M57.9 370.44v.91c0 .043-.05.711-.05.711s.142.085.156.092l.6.405c.37.228 1 .654 1.458.448h.036c.2-.085.405-.164.6-.263a.8.8 0 0 0 .363-.32.84.84 0 0 0 .071-.3c.05-.4.114-.825.206-1.238-1.15-.185-2.288-.367-3.44-.445z" class="cls-18" data-name="Path 7769" transform="translate(-48.449 -206.191)"/>
        <path id="Path_7771" d="M74.76 370.87c-1.294.085-2.6.149-3.89.206.057.491.092.982.107 1.487s.064.868.107 1.294c.612.085 3.457-.434 3.656-.974a.406.406 0 0 0 0-.185V371.1z" class="cls-18" data-name="Path 7771" transform="translate(-52.208 -206.316)"/>
        <path id="Path_7772" d="M78.8 374.512a1.1 1.1 0 0 0-.661-.491c-.455-.135-2.575-.228-3.279-.711a8.037 8.037 0 0 1-3.933.59 3.158 3.158 0 0 0 .334 1.515 1.01 1.01 0 0 0 .469.391c.868-.036 1.735-.085 2.6-.078a11.672 11.672 0 0 0 4.054-.263 1.053 1.053 0 0 0 .327-.185.662.662 0 0 0 .089-.768z" class="cls-10" data-name="Path 7772" transform="translate(-52.225 -207.02)"/>
        <path id="Path_7773" d="M74.724 371.62a74.442 74.442 0 0 1-3.784.121v.427c1.252.036 2.511 0 3.755-.05a3.9 3.9 0 0 1 .028-.5z" class="cls-5" data-name="Path 7773" transform="translate(-52.228 -206.532)"/>
        <path id="Path_7774" d="M62.914 373.931a3.777 3.777 0 0 1-1.75-1.358v-.057l-.043-.1a1.977 1.977 0 0 1-1.92.562 3.392 3.392 0 0 1-1.494-.868 5.477 5.477 0 0 0-.22 1.807.541.541 0 0 0 .085.32.533.533 0 0 0 .249.156c.711.292 1.422.569 2.176.839a10.176 10.176 0 0 0 2.532.676 1.934 1.934 0 0 0 1.579-.427c.592-.718-.696-1.315-1.194-1.55z" class="cls-10" data-name="Path 7774" transform="translate(-48.342 -206.674)"/>
        <path id="Path_7775" d="M61.24 371.359a12.618 12.618 0 0 1-3.4-.349v.477a8.734 8.734 0 0 0 3.393.441v-.228c0-.078 0-.228.007-.341z" class="cls-5" data-name="Path 7775" transform="translate(-48.446 -206.356)"/>
        <path id="Path_7776" d="M68.746 285a1.792 1.792 0 0 0-.9.327 15.784 15.784 0 0 1-2.24 1.138 1.536 1.536 0 0 1-.633.135c-.249 0-.384-.171-.59-.285a2.569 2.569 0 0 0-.711-.242 3.094 3.094 0 0 0-1.878.178.235.235 0 0 0-.121-.071h-.206a.184.184 0 0 0-.064.036l-.078.078a.384.384 0 0 0 0 .071v.043a.377.377 0 0 0 0 .149 1.692 1.692 0 0 0-.285.22 2.987 2.987 0 0 0-.8 2.895c.078.263.228.654.519.754s.775-.327 1.038-.5l2.248-1.422 4.509-2.845c.107-.118.84-.659.192-.659z" class="cls-5" data-name="Path 7776" transform="translate(-49.11 -181.52)"/>
        <path id="Path_7864" d="M68.746 285a1.792 1.792 0 0 0-.9.327 15.784 15.784 0 0 1-2.24 1.138 1.536 1.536 0 0 1-.633.135c-.249 0-.384-.171-.59-.285a2.569 2.569 0 0 0-.711-.242 3.094 3.094 0 0 0-1.878.178.235.235 0 0 0-.121-.071h-.206a.184.184 0 0 0-.064.036l-.078.078a.384.384 0 0 0 0 .071v.043a.377.377 0 0 0 0 .149 1.692 1.692 0 0 0-.285.22 2.987 2.987 0 0 0-.8 2.895c.078.263.228.654.519.754s.775-.327 1.038-.5l2.248-1.422 4.509-2.845c.107-.118.84-.659.192-.659z" class="cls-5" data-name="Path 7864" transform="translate(47.619 -181.52)"/>
        <path id="Path_7777" d="M60.378 333.826c-.427.455-.6 1.124-1.017 1.615s-.925.882-1.3 1.423c-.178.249.156.519.391.391 1-.541 2.411-2.013 2.276-3.258a.206.206 0 0 0-.348-.171z" class="cls-5" data-name="Path 7777" transform="translate(-48.495 -195.602)"/>
        <path id="Path_7778" d="M131.333 367.983c.939.974 2.539 1.494 3.642 2.063.526.27.832.8.4 1.316a2.2 2.2 0 0 1-1.885.526 11.885 11.885 0 0 1-3.016-.832c-.925-.356-2.269-.512-2.845-1.423a3.717 3.717 0 0 1 .22-3.677 2.077 2.077 0 0 1 .711-.782 1.366 1.366 0 0 1 1.785.548 5.106 5.106 0 0 1 .292 1.074 2.766 2.766 0 0 0 .696 1.187z" class="cls-5" data-name="Path 7778" transform="translate(-68.482 -204.63)"/>
        <path id="Path_7779" d="M103.268 371.248c1.181.811 3.407.541 4.644.576a11.462 11.462 0 0 0 1.849 0 2.354 2.354 0 0 0 1.259-.42c1.337-1.074-.526-1.871-1.387-2.02s-2.674-.128-3.144-1.046a2.845 2.845 0 0 1 0-1.7c.085-.569 0-1.294-.569-1.479a1.01 1.01 0 0 0-.484-.035 2.6 2.6 0 0 0-1.721 1.173c-.711 1.067-1.792 3.3-.91 4.523a1.6 1.6 0 0 0 .462.427z" class="cls-5" data-name="Path 7779" transform="translate(-61.334 -204.652)"/>
        <path id="Path_7868" d="M11.357 8.35a29.725 29.725 0 0 0 .08-3.625 1.479 1.479 0 0 1 .233-.46c.11-.129.478-.129.613-.276a.705.705 0 0 0 .166-.356 1.84 1.84 0 0 0 .037-1.227l-.067-.141c-.19-.448-.27-.871-.81-.914-.251 0-1.374.4-1.46.331s-.055-.613-.092-.761A1.84 1.84 0 0 0 9.639.2a.7.7 0 0 0-.307-.19.307.307 0 0 0-.318.12.337.337 0 0 0-.043.17 5.584 5.584 0 0 0 .3 1.024 2.159 2.159 0 0 1-.08.883c-.368 1.552.239 3.214.037 4.822a14 14 0 0 1-8.2 10.729c-1.08.515-1.1 2.233-.975 3.264a1.773 1.773 0 0 0 .288.859c.528.705 1.638.478 2.454.1 5.728-2.619 8.065-7.913 8.562-13.631z" class="cls-1" data-name="Path 7868" transform="rotate(-8 573.396 -369.437)"/>
        <path id="Path_7781" d="M128.29 324.821a93.549 93.549 0 0 0-2.319-14.374 40.711 40.711 0 0 0-2.134-7.112c-.32-.711-.676-1.686-1.074-2.61a3.976 3.976 0 0 0-1.159-.832 4.979 4.979 0 0 0-4.516.462 10.949 10.949 0 0 0-1.422.982 5.363 5.363 0 0 0-2.276 3.9c-.05 2.212 1.1 4.267 1.991 6.2 3.556 7.788 4.7 16.451 5.782 24.965a73.97 73.97 0 0 1 .8 9.46 5.879 5.879 0 0 0 0 2.027c1.8-.135 3.6-.27 5.4-.341a111.809 111.809 0 0 0 .927-22.727z" class="cls-14" data-name="Path 7781" transform="translate(-64.486 -185.722)"/>
        <path id="Path_7782" d="M111.677 299.666a4.062 4.062 0 0 0-4.438.782c-.526.413-1.038.8-1.515 1.216a16.65 16.65 0 0 0-2.525 7.745v2.269c.092 4.609.669 9.182.484 13.819a137.1 137.1 0 0 1-1.529 15.349c-.341 2.24-.626 5.918-1.124 8.13v-.1c2.027-.064 4.047.05 6.067.121.349-.854.583-3.165.818-4.054q2.738-10.427 4.851-20.982a81.337 81.337 0 0 0 1.92-14.815c.021-3.42.882-7.822-3.009-9.48z" class="cls-15" data-name="Path 7782" transform="translate(-60.917 -185.653)"/>
        <path id="Path_7783" d="M103.984 300.482c-.277 0 1-11.949 1.081-12.738a48.236 48.236 0 0 1 1.529-8.947 23.372 23.372 0 0 1 1.508-3.556c.861-1.778 4.474-3.9 6.842-2.845s3.506 3.421 4.331 5.69c2.155 6.038 3.2 15.285 3.912 23.108-5.782.262-13.428-.513-19.203-.712z" class="cls-10" data-name="Path 7783" transform="translate(-61.759 -177.798)"/>
        <path id="Path_7784" d="M97.193 306.565c2.3-2.8 2.546-8.023 3.606-11a31.4 31.4 0 0 1 1.252-2.937c1.963-4.168 4.452-8.329 4.523-13.08a2.368 2.368 0 0 0-1-2.084c-1.472-.889-2.276 1.046-2.681 2.134-.548 1.487-1.2 2.945-1.863 4.388s-.974 2.845-1.579 4.225A31.387 31.387 0 0 0 96.787 296c-.114.711-.171 1.472-.22 2.2l-.256 3.378a4.31 4.31 0 0 1-.768 2.717c-.676.768-1.6.946-2.283 1.579-.967.9-1.252 2.767.562 2.553a4.929 4.929 0 0 0 3.371-1.863z" class="cls-1" data-name="Path 7784" transform="translate(-58.453 -179.279)"/>
        <path id="Path_7785" d="M109.485 273.736l-.171.114a17.8 17.8 0 0 0-6.444 8.713l4.844 3.521a20.747 20.747 0 0 0 3.748-6.28 12.262 12.262 0 0 0 .711-3.613c0-.9 0-2.319-.989-2.767a1.8 1.8 0 0 0-1.699.312z" class="cls-10" data-name="Path 7785" transform="translate(-61.448 -178.151)"/>
        <path id="Path_7786" d="M126.389 270.913a5.747 5.747 0 0 1-2.845 1.017c-1.138.05-2.24-.434-3.378-.455a2.567 2.567 0 0 0-1.038.164 1.877 1.877 0 0 0-1.1 1.294 3.124 3.124 0 0 0 .782 2.34 2.449 2.449 0 0 0 .946.711c.377.235.356.775.477 1.195a15.913 15.913 0 0 0 .555 1.508c1.159 2.724 1.38 5.533 3.421 7.873.22.249.533.519.861.42s.42-.612.413-1l-.156-5.306c-.05-1.529 1.351-2.56 2.653-3.428.206-.128 2.688-1.956 2.688-1.963a15.4 15.4 0 0 0-1.927-2.276c-.711-.768-1.422-1.558-2.134-2.312z" class="cls-10" data-name="Path 7786" transform="translate(-65.814 -177.391)"/>
        <path id="Path_7787" d="M114.353 263.081a8.263 8.263 0 0 1-.413-2.347c0-.982 0-2.276.754-2.98a4.718 4.718 0 0 1 2.845-.526 2.51 2.51 0 0 1 1.586.989 4.7 4.7 0 0 1 .64 4.979 6.245 6.245 0 0 0-.782 3.762 2.3 2.3 0 0 0 .569 1.422c.178.171.391.292.562.469a1.287 1.287 0 0 1 .22 1.486 2.4 2.4 0 0 1-.448.555 4.352 4.352 0 0 1-1.223.868 3.335 3.335 0 0 1-4.054-1.422 1.422 1.422 0 0 1-.142-.8c.085-.5.533-.846.8-1.273.889-1.373.05-3.023-.555-4.317a8.529 8.529 0 0 1-.359-.865z" class="cls-1" data-name="Path 7787" transform="translate(-64.645 -173.492)"/>
        <path id="Path_7788" d="M120.354 257.259a14.532 14.532 0 0 0-.413-.711 2.724 2.724 0 0 0-.8-1.5 1.671 1.671 0 0 0-1.714-.327 2.418 2.418 0 0 0-2.29-.235 3.378 3.378 0 0 0-1.636 1.423 1.727 1.727 0 0 0-.661.434 1.494 1.494 0 0 0-.284 1.629 5.036 5.036 0 0 0 .768 2.845c0 .057.114.121.164.071a.164.164 0 0 0 0-.085 8.4 8.4 0 0 1 .078-1.266.709.709 0 0 1 0-.128 1.814 1.814 0 0 0 1.223-.334 1.65 1.65 0 0 0 .647-1.131 1.052 1.052 0 0 0 .057-.092 1.743 1.743 0 0 0 1.622.334 2.951 2.951 0 0 0 1.117-.676c.711.228.918 2.212 1.1 2.738.057.156.142.334.306.363a.341.341 0 0 0 .327-.171.946.946 0 0 0 .121-.37c.214-.884.702-1.929.268-2.811z" class="cls-5" data-name="Path 7788" transform="translate(-64.21 -172.655)"/>
        <path id="Path_7789" d="M122.785 262.405a.839.839 0 0 0-1.124-.512.576.576 0 0 0-.313.6.633.633 0 0 0 .5.811c.482.069 1.065-.379.937-.899z" class="cls-1" data-name="Path 7789" transform="translate(-66.776 -174.829)"/>
        <path id="Path_7790" d="M114.246 262.788h-.146a.654.654 0 0 0-1 .768.711.711 0 0 0 .832.469.868.868 0 0 0 .612-.832.405.405 0 0 0-.298-.405z" class="cls-1" data-name="Path 7790" transform="translate(-64.39 -175.069)"/>
        <path id="Path_7791" d="M116.295 265.83c-.164 0 .263.5.3.533a1.422 1.422 0 0 0 .711.363c.846.135 1.273-.42 1.422-1.166z" class="cls-18" data-name="Path 7791" transform="translate(-65.314 -175.906)"/>
        <path id="Path_7792" d="M95.138 316.665c.178.064.37.213.334.4a.349.349 0 0 1-.22.228 1.7 1.7 0 0 1-.8 0 2.738 2.738 0 0 0-1.515.341.114.114 0 0 1-.092 0c-.185 0 .043-.462.078-.533.1-.235.156-.27.413-.356a2.845 2.845 0 0 1 1.807-.078z" class="cls-13" data-name="Path 7792" transform="translate(-58.532 -190.631)"/>
        <g id="Group_1657" data-name="Group 1657" transform="translate(115.637 163.665)">
            <circle id="Ellipse_422" cx="1" cy="1" r="1" class="cls-5" data-name="Ellipse 422" transform="translate(-.135 3.827)"/>
            <circle id="Ellipse_423" cx="1" cy="1" r="1" class="cls-5" data-name="Ellipse 423" transform="translate(1.865 3.827)"/>
            <circle id="Ellipse_424" cx="1" cy="1" r="1" class="cls-5" data-name="Ellipse 424" transform="translate(3.865 3.827)"/>
            <circle id="Ellipse_425" cx="1" cy="1" r="1" class="cls-5" data-name="Ellipse 425" transform="translate(5.865 3.827)"/>
            <path id="Path_7800" d="M212.866 371.714a1.835 1.835 0 0 0-.774-.05h-1.25a4.962 4.962 0 0 1-1.984-.486 1.469 1.469 0 0 1-.605-.714c0-.069-.238-.833-.139-.843-.992 0-1.984.089-2.976.1-.308 0-.357-.05-.4.248a3.363 3.363 0 0 0 0 .7 11.035 11.035 0 0 0 .2 1.4c.109.546.179 1.329.774 1.558a10.825 10.825 0 0 0 2.828.288 12.551 12.551 0 0 0 3.284 0 2.64 2.64 0 0 0 1.538-.685c.4-.437 0-1.191-.437-1.458z" class="cls-4" data-name="Path 7800" transform="translate(-204.721 -369.62)"/>
        </g>
        <g id="Group_1656" data-name="Group 1656" transform="translate(91.321 143.121)">
            <path id="Path_7793" d="M180.3 347.415a.957.957 0 1 1 1.35-.1.957.957 0 0 1-1.35.1z" class="cls-5" data-name="Path 7793" transform="translate(-176.196 -345.734)"/>
            <path id="Path_7794" d="M178.985 348.925a.957.957 0 1 1 1.35-.1.957.957 0 0 1-1.35.1z" class="cls-5" data-name="Path 7794" transform="translate(-176.14 -345.799)"/>
            <path id="Path_7795" d="M177.675 350.435a.957.957 0 1 1 1.35-.1.957.957 0 0 1-1.35.1z" class="cls-5" data-name="Path 7795" transform="translate(-176.084 -345.864)"/>
            <path id="Path_7796" d="M177.054 352.174a.959.959 0 1 1 .89-1.024.959.959 0 0 1-.89 1.024z" class="cls-5" data-name="Path 7796" transform="translate(-176.028 -345.928)"/>
            <path id="Path_7801" d="M178.486 352.491c.6-.526 1.062-1.225 1.713-1.7.45-.345.957-.785 1.56-.546a2.617 2.617 0 0 1 .574.383s.881-1.273.957-1.388a7.187 7.187 0 0 1 1.2-1.216 12.322 12.322 0 0 1-1.5-.957c-.383-.239-.957-.833-1.484-.794s-.708.479-.957.727a12.854 12.854 0 0 1-.957.957 12.348 12.348 0 0 0-2.087 2.383 2.316 2.316 0 0 0-.383 1.914.814.814 0 0 0 1.369.239z" class="cls-4" data-name="Path 7801" transform="translate(-176.071 -345.757)"/>
        </g>
        <path id="Path_7803" d="M201.982 292.39a.612.612 0 1 1-.612.612.612.612 0 0 1 .612-.612z" class="cls-22" data-name="Path 7803" transform="translate(-89.891 -183.654)"/>
        <path id="Path_7808" d="M201.231 297a.711.711 0 1 0 .489.676.711.711 0 0 0-.489-.676z" class="cls-1" data-name="Path 7808" transform="translate(-89.71 -184.985)"/>
        <path id="Path_7809" d="M200.769 305.668a4.077 4.077 0 0 1-.285-.711c0-.043 0-.085-.071-.1a.289.289 0 0 0-.114 0 1.721 1.721 0 0 0-.462 2.553 4.366 4.366 0 0 0 1 .882 2.653 2.653 0 0 0 .5.284 1.38 1.38 0 0 0 1.124-.085 1.558 1.558 0 0 0 .576-.541c.171-.27.2-.348-.1-.462a3.762 3.762 0 0 1-1.06-.583 4.111 4.111 0 0 1-1.108-1.237z" class="cls-4" data-name="Path 7809" transform="translate(-89.34 -187.252)"/>
        <path id="Path_7810" d="M206.562 306.5a1.423 1.423 0 0 1 .05.306c0 .64-.22 1.636-.967 1.764a.711.711 0 0 1-.533-.149 1.358 1.358 0 0 1-.356-.448.156.156 0 0 1 0-.114c0-.036.043-.057.071-.078a1.536 1.536 0 0 0 .505-.5 1.579 1.579 0 0 0 .164-.64 6.272 6.272 0 0 0 0-1.366 1.906 1.906 0 0 1 1.066 1.225z" class="cls-4" data-name="Path 7810" transform="translate(-90.866 -187.376)"/>
        <g id="Group_1655" data-name="Group 1655" transform="translate(100.835 118.916)">
            <path id="Path_7804" d="M195.095 320.817a15.024 15.024 0 0 0-.455-2l-.071-.085a2.07 2.07 0 0 1-.235-1.771 6.08 6.08 0 0 1 .839-1.643l1.771-2.731c.562-.875 1.11-1.778.711-2.845a1.358 1.358 0 0 0-1.422-.9 1.927 1.927 0 0 0-.8.448 10.449 10.449 0 0 0-2.055 2.6 11.992 11.992 0 0 0-1.465 3.186 7.491 7.491 0 0 0-.327 2.468 5.278 5.278 0 0 0 1.245 2.475 3.976 3.976 0 0 0 2.333 1.173 1.7 1.7 0 0 1-.069-.375z" class="cls-1" data-name="Path 7804" transform="translate(-191.456 -306.608)"/>
            <path id="Path_7811" d="M200.211 310.281a.711.711 0 0 0-.462.149 1.714 1.714 0 0 0 .477-.918.711.711 0 0 0-.711-.711 1.109 1.109 0 0 0-.882.711c.306-.953.526-3.307-.946-3.734a1.956 1.956 0 0 0-1.6.235 2.383 2.383 0 0 0-.818 1.486 7.546 7.546 0 0 0-.107 2.71 1.422 1.422 0 0 0-1.38-.142 1.109 1.109 0 0 0-.711 1 2.062 2.062 0 0 0 .356.932c.5.868.967 1.75 1.5 2.6.32.519.711 1.309 1.529 1.287 1.266-.036 3.25-.747 3.357-1.942a.242.242 0 0 0-.142-.284.377.377 0 0 0-.178 0l-.711.142 1.053-1.145a5.042 5.042 0 0 0 .782-1.017c.227-.449.483-1.366-.406-1.359z" class="cls-20" data-name="Path 7811" transform="translate(-191.886 -305.702)"/>
            <path id="Path_7812" d="M198 319.04h-.5c-1.181 0-2.368 0-3.556.043a39.209 39.209 0 0 1 1.522 5.462c1.6.036 3.2 0 4.794-.036.156-1.835.441-3.684.583-5.519z" class="cls-4" data-name="Path 7812" transform="translate(-192.137 -309.539)"/>
            <path id="Path_7813" d="M200.3 323.164a.313.313 0 0 0-.277-.185.284.284 0 0 0-.512-.22c-.156.256-.341.476-.512.711a4.93 4.93 0 0 1-.91 0 7.476 7.476 0 0 1-1.942-.349 2.611 2.611 0 0 1-1.2-.626 4.927 4.927 0 0 1-.711-1.166 2.369 2.369 0 0 0-1.152-1.28 1.117 1.117 0 0 0-1.038.2 1.373 1.373 0 0 0-.626.8 1.572 1.572 0 0 0 .142.861 5.482 5.482 0 0 0 3.414 2.767 5.06 5.06 0 0 0 .661.192 6.821 6.821 0 0 0 2.063.263 5.035 5.035 0 0 0 1.38-.121 1.771 1.771 0 0 0 .377-.114.761.761 0 0 0 .647-.384 1.807 1.807 0 0 0 .263-.953.846.846 0 0 0-.067-.396z" class="cls-1" data-name="Path 7813" transform="translate(-191.405 -309.83)"/>
            <path id="Path_7814" d="M198.433 310.157c0-.242-.334-.185-.313.057a84.094 84.094 0 0 1 .178 8.983c0 .277.292.263.313 0a49.21 49.21 0 0 0-.178-9.04z" class="cls-4" data-name="Path 7814" transform="translate(-193.343 -306.944)"/>
        </g>
        <path id="Path_7815" d="M205.66 298.832c.078.164.185.42.42.42a.633.633 0 0 0 .583-.221.761.761 0 0 0 .149-.292c0-.057.078-.27 0-.313s-.3.071-.363.092l-.391.142a2.441 2.441 0 0 0-.4.171z" class="cls-24" data-name="Path 7815" transform="translate(-91.13 -185.394)"/>
        <path id="Path_7824" d="M209.541 287.868a1.37 1.37 0 0 0 .539.875.962.962 0 0 0 1.458-.838 1.917 1.917 0 0 0-.087-.445 2.594 2.594 0 0 0-.211-.6c-.24-.43-.838-1.224-1.392-.86s-.431 1.351-.307 1.868z" class="cls-1" data-name="Path 7824" transform="translate(-89.231 -178.608)"/>
        <path id="Path_7828" d="M170.817 345.061c-.036-1.323-1.422-4.808-3.193-3.663-2.361 1.5-2.468 6.586-2.7 8.99-.32 3.464.206 6.835.164 10.27 0 2.667 2.262 2.667 4.267 3.279.434.135.839.356 1.266.512a3.883 3.883 0 0 0 1.871.164.713.713 0 0 0 .277-.092.491.491 0 0 0 .078-.6 1.422 1.422 0 0 0-.462-.448c-1.422-1.031-3.236-2.077-3.556-3.962a7.525 7.525 0 0 1 0-2.077c.487-4.234 2.08-8.099 1.988-12.373z" class="cls-25" data-name="Path 7828" transform="translate(-79.338 -197.74)"/>
        <path id="Path_7829" d="M140.911 326.468c4.189.228 8.371-.782 12.575-1.038 1.486-.092 2.2 1.579 2.582 2.76.292.925.434 1.885.654 2.845s1.2.661 1.572-.085a2.781 2.781 0 0 0 .192-1.487c-.128-1.572-.711-3.108-.59-4.687a3.726 3.726 0 0 0-.114-1.885 2.516 2.516 0 0 0-2.383-1.01 18.25 18.25 0 0 1-5.619-.939 42.617 42.617 0 0 0-5.455-1.323 9.809 9.809 0 0 0-4.431.171c-1.636.526-3.819 2.461-3.478 4.4.256 1.423 1.991 2.055 3.457 2.212.348.023.689.052 1.038.066z" class="cls-25" data-name="Path 7829" transform="translate(-71.125 -191.466)"/>
        <path id="Path_7830" d="M165.585 323.958c0 .861-1.877 20.543-2.3 22.264.313 0 1.991.9 2.3.954a7.276 7.276 0 0 0 1.715 0 7.124 7.124 0 0 0 .954 0c3.062-9.473 6.082-31.765 4.521-41.6-.213-1.323-.562-2.674-1.814-3.137a4.666 4.666 0 0 0-4.666 1.117 7.5 7.5 0 0 0-2.134 4.474 19.586 19.586 0 0 0 .149 5.036c.478 3.68 1.282 7.2 1.275 10.892z" class="cls-14" data-name="Path 7830" transform="translate(-78.892 -186.494)"/>
        <path id="Path_7831" d="M168.689 259.795a6.173 6.173 0 0 0-.711-.59c-.8-.647-3.686-.745-3.478-.206a4.09 4.09 0 0 0-2.091 5.1 2.064 2.064 0 0 0 .341.626c.811 1 2.482 1.181 3.656 1.046a4.416 4.416 0 0 0 2.3-.5 2.639 2.639 0 0 0 .868-1.5 4.659 4.659 0 0 0-.107-2.845 3.143 3.143 0 0 0-.778-1.131z" class="cls-4" data-name="Path 7831" transform="translate(-78.569 -173.911)"/>
        <path id="Path_7832" d="M158.425 302.951a2.432 2.432 0 0 0-.455-1.422 1.813 1.813 0 0 0-.832-.441 5.633 5.633 0 0 0-3.9.654 2.213 2.213 0 0 0-.612.4 3.983 3.983 0 0 0-.661 1.145c-.775 1.536-2.262 2.2-3.642 3.087l-4.609 2.994c-3.044 1.977-5.953 4.353-7.148 7.909a3.321 3.321 0 0 0-.05 2.368 2.845 2.845 0 0 0 2.575 1.472c1.045-.049 8.445.449 9.39 0a6.5 6.5 0 0 0 3.676-5.038 4.486 4.486 0 0 0-.975 0 5.707 5.707 0 0 1 .975-.88c3.293-2.326 5.27-4.637 6.074-8.634a7.318 7.318 0 0 0 .277-2.589c-.041-.314-.055-.669-.083-1.025z" class="cls-15" data-name="Path 7832" transform="translate(-71.107 -186.135)"/>
        <path id="Path_7833" d="M163.107 269.8a4.652 4.652 0 0 1 .654-2.1c.128-.206.27-.4.384-.612a4.771 4.771 0 0 0 .334-1.287 5.384 5.384 0 0 0 .135-1.351 3.215 3.215 0 0 0-.22-1.33 6.206 6.206 0 0 0-.484-1 3.557 3.557 0 0 0-.711-.8 2.845 2.845 0 0 0-3.976.37 3.286 3.286 0 0 0-1 2.134 9.388 9.388 0 0 0 .413 2.468 9.793 9.793 0 0 0 .441 1.046 7.725 7.725 0 0 1 .747 1.636 4.979 4.979 0 0 1-.192 2.4 2.2 2.2 0 0 1-1.166 1.522c-.59.263-1.273.206-1.871.427a4.374 4.374 0 0 0-1.728 1.423 68.991 68.991 0 0 0-7.39 9.865c-.455.8-.861 1.871-.242 2.553s2 .249 2.8-.42c1.565-1.316 4.047-6.323 6.181-6.294a1.551 1.551 0 0 1 1.366.91c.156.356.206.8.533.989a1.167 1.167 0 0 0 .583.1 7.251 7.251 0 0 0 4.232-.932 16.321 16.321 0 0 1 2.02-1.643c3.364-1.643 6.067 4.979 7.525 6.906.669.875 1.75 1.764 2.753 1.309a1.807 1.807 0 0 0 .875-1.885 5.206 5.206 0 0 0-.875-2.02l-4.374-7.169a6.1 6.1 0 0 0-1.209-1.579c-1.188-.989-3.023-1.117-4.4-1.75a3.4 3.4 0 0 1-1.977-2.326 4.56 4.56 0 0 1-.161-1.56z" class="cls-25" data-name="Path 7833" transform="translate(-74.167 -174.496)"/>
        <path id="Path_7834" d="M166 301.028a6.309 6.309 0 0 0 2.781-1.892 2.134 2.134 0 0 0 .306-1.373 91.322 91.322 0 0 0-.576-10.121 10.3 10.3 0 0 0-.391-2.845c-.448-1 4.231 5.555 4.169 4.407.558-.434 3-.5 3.164-1.562 0 0-2.212-4.755-4.435-7.059a6.172 6.172 0 0 0-4.455-2.158 7.819 7.819 0 0 1-1.038-.569 1.322 1.322 0 0 1-.42-.213 5.946 5.946 0 0 1-.149 2.454c-.256.818-.91 1.9-1.842 2a2.674 2.674 0 0 1-2.276-1.266 7.184 7.184 0 0 1-.882-3.279 1.046 1.046 0 0 0-.284-.1 7.614 7.614 0 0 1-1.174.469 2.361 2.361 0 0 0-1.707.5c-2.134 1.743-6.328 7.949-6.328 7.949s3.575.449 3.006 2.1c-.279.81 3.915-3.874 3.322-3.255-.277.3-.221 1.707-.263 2.134a88.407 88.407 0 0 0-.2 2.29q-.135 2.212-.121 4.431c0 1.294-.242 2.418.434 3.556a8.051 8.051 0 0 0 4.929 3.891 8.3 8.3 0 0 0 4.431-.491z" class="cls-18" data-name="Path 7834" transform="translate(-75.191 -179.34)"/>
        <path id="Path_7835" d="M147.885 297.092a4.978 4.978 0 0 0 2.07.171 49.2 49.2 0 0 0 9.516-1.309 2.234 2.234 0 0 0 .868-.363 2.426 2.426 0 0 0 .711-1.565c.142-.8.277-1.607.42-2.411a1.238 1.238 0 0 0-.1-1 8.408 8.408 0 0 0-1.088 2.134c-.178.541-.341 1.166-.846 1.422a2 2 0 0 1-.8.171 23.285 23.285 0 0 1-5.875-.427 13.962 13.962 0 0 0-3.1-.455 3.514 3.514 0 0 0-2.8 1.23 1.735 1.735 0 0 0 1.024 2.4z" class="cls-25" data-name="Path 7835" transform="translate(-74.102 -183.143)"/>
        <path id="Path_7836" d="M180.642 297.089a5.171 5.171 0 0 1-2.134.171c-1.878-.114-3.762-.256-5.633-.519-.953-.128-1.9-.284-2.845-.484a12.665 12.665 0 0 1-2.319-.555c-.548-.242-.711-.939-.761-1.536a13.513 13.513 0 0 1 .171-3.556 5.418 5.418 0 0 1 .548 1.536 4.4 4.4 0 0 0 .59 1.508c.711 1.017 2.226.761 3.322.711a24.469 24.469 0 0 0 4.068-.448 14.652 14.652 0 0 1 3.186-.455c.9 0 2.383.384 2.845 1.23a1.721 1.721 0 0 1-1.038 2.4z" class="cls-25" data-name="Path 7836" transform="translate(-79.938 -183.14)"/>
        <path id="Path_7837" d="M168.716 262.985a.839.839 0 0 0 .4 0c.548-.107.413-.782.32-1.166-.149-.619-.285-1.159-.861-1.458a4.552 4.552 0 0 0-2.013-.541 4.374 4.374 0 0 0-2.724.889 2.923 2.923 0 0 0-1.2 1.828c-.121 1.017.633.9 1.209.384a6.4 6.4 0 0 1 1.323-1.031 1.828 1.828 0 0 1 1.615-.107 5.34 5.34 0 0 1 .711.512 7.02 7.02 0 0 0 .8.477 3.143 3.143 0 0 0 .42.213z" class="cls-4" data-name="Path 7837" transform="translate(-78.702 -174.249)"/>
        <path id="Path_7838" d="M171.967 266.153a.6.6 0 0 0-.768.05.519.519 0 0 0-.185.555.306.306 0 0 0-.057.256v.064a.384.384 0 0 0 .27.277c.683.178 1.33-.712.74-1.202z" class="cls-25" data-name="Path 7838" transform="translate(-81.107 -176.044)"/>
        <path id="Path_7839" d="M163.457 266.9a1.422 1.422 0 0 0-.05-.455.318.318 0 0 0-.043-.1.235.235 0 0 0-.135-.171c-.6-.284-1.344.2-1.038.9a.711.711 0 0 0 .711.405.548.548 0 0 0 .512-.455.313.313 0 0 0 .043-.124z" class="cls-25" data-name="Path 7839" transform="translate(-78.557 -176.06)"/>
        <path id="Path_7840" d="M165.49 269.04a1.685 1.685 0 0 0 .782.818 1.2 1.2 0 0 0 1.28-.156 1.871 1.871 0 0 0 .434-.711 15.426 15.426 0 0 1-2.496.049z" class="cls-24" data-name="Path 7840" transform="translate(-79.53 -176.897)"/>
        <path id="Path_7841" d="M367.856 330.671c0-.768-.22-1.785-1.081-2a2.2 2.2 0 0 0-.861 0l-.519.085h-.195a2.2 2.2 0 0 0-1.081.178l-.128.043.036.057a6.287 6.287 0 0 0-.868.242.946.946 0 0 0-.555.4 1.009 1.009 0 0 0 0 .5c.092.64.228 1.287.284 1.927 0 .349-.114.925.441.747a2.006 2.006 0 0 1 .861-.156 1.223 1.223 0 0 1 .818.569 2.973 2.973 0 0 1 .363.953 6.4 6.4 0 0 1 .235 2.006c-.043.469-.085.953.413 1.23a.989.989 0 0 0 1.1-.185 2.19 2.19 0 0 0 .569-1.017c0-.413.213-.9.256-1.323a7.51 7.51 0 0 0-.043-1.2c-.071-.96 0-1.956 0-2.923a.712.712 0 0 0-.045-.133z" class="cls-4" data-name="Path 7841" transform="translate(-136.44 -194.118)"/>
        <path id="Path_7842" d="M325.912 329.849a5.82 5.82 0 0 0 3.2 2.44 6.464 6.464 0 0 0 2.8-.263q10.007-2.475 19.851-5.541a17.293 17.293 0 0 0-.27-5.512l-9.168 1.679c-2.468.455-5.918 1.742-8.414 1.195a3.122 3.122 0 0 1-2.134-2.326 11.379 11.379 0 0 1-.171-3.3 32.765 32.765 0 0 0-1.558-11.031c-.377-1.159-.974-2.44-2.134-2.738a3.18 3.18 0 0 0-1.956.277 8.891 8.891 0 0 0-5.263 6.543c-1.476 6.272 1.412 13.676 5.217 18.577z" class="cls-5" data-name="Path 7842" transform="translate(-124.233 -187.122)"/>
        <path id="Path_7843" d="M308.995 368.74l-1.529 1.593c-.455.469-.939 1.174-.569 1.714a1.223 1.223 0 0 0 1.28.341 9.51 9.51 0 0 0 4.943-4.189 2.568 2.568 0 0 0-.121-2.5c-1.693-2.336-3.051 2.045-4.004 3.041z" class="cls-4" data-name="Path 7843" transform="translate(-120.325 -204.626)"/>
        <path id="Path_7844" d="M293.613 297.253a2.8 2.8 0 0 1-.889-1.287 4.645 4.645 0 0 0-.242-1.131.3.3 0 0 0-.121-.128.256.256 0 0 0-.292.128.712.712 0 0 0-.05.341 3.433 3.433 0 0 1-.043.768c-.661-.391-1.01-1.053-1.842-1.259a1.488 1.488 0 0 0-.612-.043c-1.017.206-1.1 1.935-.711 2.667.64 1.131 2.212 1.771 3.329 2.3a17.072 17.072 0 0 1 3.144 2.3 19.315 19.315 0 0 0 4.872 3.236 1.97 1.97 0 0 0 1.152.178 2.177 2.177 0 0 0 1.074-.789 36.167 36.167 0 0 0 5.235-7.745 13 13 0 0 0 1.522-4.367c.142-1.337-.348-3.158-2.055-3.058a2.681 2.681 0 0 0-1.828 1.017 7.9 7.9 0 0 0-1.088 1.849l-3.03 6.4c-.6 1.252-1.238 1.679-2.582 1.316a12.022 12.022 0 0 1-3.407-1.558 11.422 11.422 0 0 1-1.536-1.135z" class="cls-13" data-name="Path 7844" transform="translate(-115.078 -182.777)"/>
        <path id="Path_7845" d="M323.884 313.407c-.761 2.845-3.265 5.491-5.249 7.724a82.686 82.686 0 0 0-6.01 7.617 3.307 3.307 0 0 0-.5.9 3.458 3.458 0 0 0-.064 1.117c.341 6.01.071 12.091 1.01 18.051-.149-.9-4.267.306-4.673.434a78.185 78.185 0 0 1-4.979-15.875 15.7 15.7 0 0 1-.42-5.69 16.158 16.158 0 0 1 1.863-4.922 86.061 86.061 0 0 1 5.107-8.535c.711-1 1.664-1.863 1.935-3.03.306-1.294-.206-2.681.711-3.826a3.646 3.646 0 0 1 .932-.747 7.824 7.824 0 0 1 5.164-1.088 6.28 6.28 0 0 1 5.135 7.888z" class="cls-6" data-name="Path 7845" transform="translate(-119.211 -187.43)"/>
        <path id="Path_7846" d="M314.345 274.57a21.812 21.812 0 0 1-.391-2.048 8.91 8.91 0 0 0-.377-1.949c-.811-2.255-6.01-4.324-6.743-.953a5.305 5.305 0 0 0 .114 2.191 5.042 5.042 0 0 0 1.209 2.7c.427.413.981.711 1.422 1.074 1.2 1.081.789 3.229 1.01 4.659a.91.91 0 0 0 .334.661.953.953 0 0 0 .6.071 30.036 30.036 0 0 0 2.269-.341 4.138 4.138 0 0 0 2.255-.861c.32-.377.164-.669-.107-1.038a7.191 7.191 0 0 1-.868-1.771 22.618 22.618 0 0 1-.725-2.39z" class="cls-13" data-name="Path 7846" transform="translate(-120.326 -176.566)"/>
        <path id="Path_7847" d="M339.564 305.717a18.769 18.769 0 0 0-.256 2.191 2.98 2.98 0 0 0 .839 2.283 1.942 1.942 0 0 0 2.312.285 1.586 1.586 0 0 0 .633-.825 1.081 1.081 0 0 0-.043-.854.633.633 0 0 0-.754-.292c-.59-3.556 1.11-7.952 1.807-11.465a5.144 5.144 0 0 0-.135-3.506 5.22 5.22 0 0 0-1.259-1.337 28.757 28.757 0 0 0-3.6-2.7c-1.422-.846-3.471-1.124-3.869.91-.313 1.629.91 2.219 2.134 2.959a9.167 9.167 0 0 1 2.283 1.671c.854 1.031.526 2.1.448 3.457-.1 1.707-.2 3.414-.27 5.121a18.373 18.373 0 0 1-.27 2.1z" class="cls-13" data-name="Path 7847" transform="translate(-128.533 -182.635)"/>
        <path id="Path_7848" d="M314.314 303.8a.569.569 0 0 1-.711-.462 74.121 74.121 0 0 1-3.464-13.421 8.93 8.93 0 0 1 .235-5.064 4.276 4.276 0 0 1 3.492-2.9 14.224 14.224 0 0 1 6.245-.192 23.321 23.321 0 0 1 7.29 2.9 20.32 20.32 0 0 0 3.684 1.906l-1.472 5.036c-.064.22-4.047-1.323-4.4-1.074-.747.526.541 2.617.789 3.307a40.064 40.064 0 0 1 2.212 9.559c-1.977.192-3.94.036-5.932.036z" class="cls-18" data-name="Path 7848" transform="translate(-121.227 -180.509)"/>
        <path id="Path_7849" d="M306.385 269.11h-.085" class="cls-26" data-name="Path 7849" transform="translate(-120.191 -176.931)"/>
        <path id="Path_7850" d="M309.422 264.739h-.107a9.012 9.012 0 0 0-3.606 2.077 1.914 1.914 0 0 0-.669 1.031c-.156.8.526 1.245 1.23 1.124.946-.164 1.885-.349 2.845-.519a1.636 1.636 0 0 1 1.991 1.024c.405.768.711 1.835 1.607 2.134.363.107.825.135 1.038-.178a1.01 1.01 0 0 0 .085-.711c-.107-.846-.213-1.7-.313-2.553a5.519 5.519 0 0 0-.32-1.423 2.788 2.788 0 0 0-1.629-1.508 4.338 4.338 0 0 0-2.155-.5z" class="cls-4" data-name="Path 7850" transform="translate(-119.82 -175.669)"/>
        <path id="Path_7852" d="M313.367 270.179a6.355 6.355 0 0 0-.711-.263 5.55 5.55 0 0 0-.676-.171 13.614 13.614 0 0 0-3.179-.249 4.168 4.168 0 0 0-1.287.242 6.724 6.724 0 0 0-.953.448 3.55 3.55 0 0 0 .071.455 33.12 33.12 0 0 1 4.118.3c.711.142 1.465.313 2.191.5a4.162 4.162 0 0 0 1.131.3c.341-.043.249-.377.277-.711s-.649-.695-.982-.851z" class="cls-10" data-name="Path 7852" transform="translate(-120.266 -177.04)"/>
        <path id="Path_7853" d="M310.139 275.344a.078.078 0 0 0-.078-.064c-.2 0-.284.128-.462.213a2.717 2.717 0 0 1-.925.192.068.068 0 0 0 0 .135 1.729 1.729 0 0 0 1.088 0 .4.4 0 0 0 .377-.476z" class="cls-4" data-name="Path 7853" transform="translate(-120.857 -178.713)"/>
        <path id="Path_7854" d="M314.562 271.863a.711.711 0 0 0-1.053-.178.761.761 0 0 0-.313.562.512.512 0 0 0 0 .555c.492 1.039 2.021.021 1.366-.939z" class="cls-13" data-name="Path 7854" transform="translate(-122.158 -177.629)"/>
        <path id="Path_7855" d="M271.82 252.118a4.781 4.781 0 0 0-4.452-1.422 9.707 9.707 0 0 1-1.92.405 6.539 6.539 0 0 0-1.287.185 1.579 1.579 0 0 0-1 .761 1.28 1.28 0 0 0 .967 1.707 5.689 5.689 0 0 0 1.8.078c.711-.036 1.422-.1 2.134-.121a3.1 3.1 0 0 1 1.572.206.541.541 0 0 1 .32.427l.164 1.465a2.183 2.183 0 0 0 .462 1.351c.242.256.91.533 1.2.213s.114-1.287.142-1.593c.062-.818.478-2.973-.102-3.662z" class="cls-4" data-name="Path 7855" transform="translate(-31.606 -161.618)"/>
        <path id="Path_7867" d="M120.354 257.259a14.532 14.532 0 0 0-.413-.711 2.724 2.724 0 0 0-.8-1.5 1.671 1.671 0 0 0-1.714-.327 2.418 2.418 0 0 0-2.29-.235 3.378 3.378 0 0 0-1.636 1.423 1.727 1.727 0 0 0-.661.434 1.494 1.494 0 0 0-.284 1.629 5.036 5.036 0 0 0 .768 2.845c0 .057.114.121.164.071a.164.164 0 0 0 0-.085 8.4 8.4 0 0 1 .078-1.266.709.709 0 0 1 0-.128 1.814 1.814 0 0 0 1.223-.334 1.65 1.65 0 0 0 .647-1.131 1.052 1.052 0 0 0 .057-.092 1.743 1.743 0 0 0 1.622.334 2.951 2.951 0 0 0 1.117-.676c.711.228.918 2.212 1.1 2.738.057.156.142.334.306.363a.341.341 0 0 0 .327-.171.946.946 0 0 0 .121-.37c.214-.884.702-1.929.268-2.811z" class="cls-4" data-name="Path 7867" transform="translate(-29.359 -169.81)"/>
    </g>
</svg>
