<svg xmlns="http://www.w3.org/2000/svg" width="28.13" height="22.103" viewBox="0 0 28.13 22.103">
    <defs>
        <style>
            .cls-1{fill:#36cc45}
        </style>
    </defs>
    <g id="black-back-closed-envelope-shape" transform="translate(0 -59.013)">
        <g id="Group_1151" data-name="Group 1151" transform="translate(0 59.013)">
            <path id="Path_6173" d="M41.7 332.118a2.4 2.4 0 0 0 1.646-.621l-7.97-7.97-.552.4q-.895.659-1.452 1.028a8.954 8.954 0 0 1-1.483.754 4.523 4.523 0 0 1-1.727.384h-.032a4.522 4.522 0 0 1-1.727-.384 8.925 8.925 0 0 1-1.483-.754q-.557-.369-1.452-1.028a95.132 95.132 0 0 0-.55-.4l-7.972 7.973a2.4 2.4 0 0 0 1.646.621z" class="cls-1" data-name="Path 6173" transform="translate(-16.081 -310.016)"/>
            <path id="Path_6174" d="M1.586 199.921A8.323 8.323 0 0 1 0 198.555v12.126l7.024-7.024q-2.107-1.472-5.438-3.736z" class="cls-1" data-name="Path 6174" transform="translate(0 -191.428)"/>
            <path id="Path_6175" d="M418.761 199.921q-3.207 2.171-5.452 3.738l7.022 7.022v-12.126a8.659 8.659 0 0 1-1.57 1.366z" class="cls-1" data-name="Path 6175" transform="translate(-392.2 -191.428)"/>
            <path id="Path_6176" d="M25.624 59.013H2.517a2.241 2.241 0 0 0-1.86.816 3.167 3.167 0 0 0-.651 2.041 3.668 3.668 0 0 0 .863 2.143 7.788 7.788 0 0 0 1.837 1.813q.534.377 3.218 2.237a1067.982 1067.982 0 0 1 4.112 2.865l.234.167.433.312q.51.369.848.6t.816.51a4.763 4.763 0 0 0 .9.424 2.5 2.5 0 0 0 .785.141h.031a2.5 2.5 0 0 0 .785-.141 4.751 4.751 0 0 0 .9-.424q.479-.283.816-.51t.848-.6l.433-.312.235-.167 1.589-1.1 5.758-4a7.466 7.466 0 0 0 1.915-1.931 4.153 4.153 0 0 0 .769-2.37 2.532 2.532 0 0 0-2.512-2.512z" class="cls-1" data-name="Path 6176" transform="translate(-.006 -59.013)"/>
        </g>
    </g>
</svg>
