<svg xmlns="http://www.w3.org/2000/svg" width="15.892" height="14.586" viewBox="0 0 15.892 14.586">
    <defs>
        <style>
            .cls-1{fill:#36cc45}
        </style>
    </defs>
    <g id="chat_2_" data-name="chat (2)" transform="translate(0 -2.465)">
        <path id="Path_3833" d="M10.613 13.465l-9.042.019A1.572 1.572 0 0 0 0 15.054v5.6a1.572 1.572 0 0 0 1.571 1.57h1.607v2.649a.265.265 0 0 0 .461.178l2.57-2.828 4.4-.018a1.572 1.572 0 0 0 1.571-1.57v-5.6a1.573 1.573 0 0 0-1.567-1.57zm-7.964 2.649h3.443a.265.265 0 1 1 0 .53H2.649a.265.265 0 0 1 0-.53zm6.887 3.708H2.649a.265.265 0 0 1 0-.53h6.886a.265.265 0 0 1 0 .53zm0-1.589H2.649a.265.265 0 1 1 0-.53h6.886a.265.265 0 1 1 0 .53z" class="cls-1" data-name="Path 3833" transform="translate(0 -8.086)"/>
        <path id="Path_3834" d="M24.614 2.484l-9.043-.019A1.572 1.572 0 0 0 14 4.036v.827l6.9-.014a2.1 2.1 0 0 1 2.1 2.1V13.1l.863.95a.265.265 0 0 0 .461-.178v-2.647h.283a1.572 1.572 0 0 0 1.571-1.57v-5.6a1.572 1.572 0 0 0-1.564-1.571z" class="cls-1" data-name="Path 3834" transform="translate(-10.292)"/>
    </g>
</svg>
