<svg xmlns="http://www.w3.org/2000/svg" width="19.306" height="29.346" viewBox="0 0 19.306 29.346">
    <defs>
        <style>
            .cls-1{fill:#36cc45}
        </style>
    </defs>
    <g id="footprints_1_" data-name="footprints (1)" transform="translate(-102.037 -21.972)">
        <path id="Path_6137" d="M301.88 410.559a2.169 2.169 0 0 0 2.311-2.018l.1-1.405-4.221-1.887-.2 3a2.172 2.172 0 0 0 2.01 2.31z" class="cls-1" data-name="Path 6137" transform="translate(-185.418 -359.246)"/>
        <path id="Path_6138" d="M283.906 151.434l4.471 2.1 1.447-5.182c1.036-4.768.4-8.33-1.758-9.775a3.071 3.071 0 0 0-3.424-.128l-.028.017a4.673 4.673 0 0 0-1.345 1.345 6.19 6.19 0 0 0-.878 4.485z" class="cls-1" data-name="Path 6138" transform="translate(-168.966 -108.748)"/>
        <path id="Path_6139" d="M145.352 289.3l-4.225 1.88.092 1.405a2.17 2.17 0 0 0 4.33-.285z" class="cls-1" data-name="Path 6139" transform="translate(-36.639 -250.571)"/>
        <path id="Path_6140" d="M103.952 37.512l4.475-2.1 1.528-7.13a6.193 6.193 0 0 0-.869-4.487 4.674 4.674 0 0 0-1.343-1.348l-.027-.017a3.071 3.071 0 0 0-3.424.121c-2.156 1.441-2.8 5-1.776 9.771z" class="cls-1" data-name="Path 6140"/>
    </g>
</svg>
