<svg xmlns="http://www.w3.org/2000/svg" width="15.902" height="13.18" viewBox="0 0 15.902 13.18">
    <defs>
        <style>
            .cls-1{fill:#fff}
        </style>
    </defs>
    <g id="photo-camera" transform="translate(0 -41.75)">
        <g id="Group_917" data-name="Group 917" transform="translate(0 41.75)">
            <path id="Path_3798" d="M15.668 45.333a15.808 15.808 0 0 0-4.135-1.308l-.1-.417a2.394 2.394 0 0 0-2.339-1.858H6.808a2.4 2.4 0 0 0-2.341 1.859l-.1.417a15.662 15.662 0 0 0-4.132 1.307.439.439 0 0 0-.235.389v5.184a3.773 3.773 0 0 0 3.769 3.769.44.44 0 1 0 0-.88A2.892 2.892 0 0 1 .88 50.906V46a16.456 16.456 0 0 1 3.93-1.159.44.44 0 0 0 .352-.333l.163-.7a1.518 1.518 0 0 1 1.483-1.178h2.286a1.517 1.517 0 0 1 1.484 1.177l.163.7a.436.436 0 0 0 .352.333A16.616 16.616 0 0 1 15.022 46v4.907a2.892 2.892 0 0 1-2.889 2.889.44.44 0 1 0 0 .88 3.773 3.773 0 0 0 3.767-3.77v-5.184a.433.433 0 0 0-.232-.389z" class="cls-1" data-name="Path 3798" transform="translate(0 -41.75)"/>
            <path id="Path_3799" d="M31.072 85.582a.4.4 0 0 0 .137-.023c.463-.153.949-.29 1.444-.408a.439.439 0 1 0-.2-.854c-.518.124-1.03.267-1.519.427a.44.44 0 0 0-.28.554.45.45 0 0 0 .418.304z" class="cls-1" data-name="Path 3799" transform="translate(-29.631 -82.899)"/>
            <path id="Path_3800" d="M93.567 135.05a5.069 5.069 0 1 0 5.067 5.07 5.072 5.072 0 0 0-5.067-5.07zm0 9.257a4.188 4.188 0 1 1 4.187-4.19 4.191 4.191 0 0 1-4.187 4.19z" class="cls-1" data-name="Path 3800" transform="translate(-85.614 -132.008)"/>
        </g>
    </g>
</svg>
