<svg xmlns="http://www.w3.org/2000/svg" width="16.772" height="13.691" viewBox="0 0 16.772 13.691">
    <defs>
        <style>
            .cls-1{fill:#36cc45}
        </style>
    </defs>
    <g id="sign-out-option" transform="translate(0 -41.115)">
        <g id="Group_926" data-name="Group 926" transform="translate(0 41.115)">
            <path id="Path_3811" d="M6.846 53.78a.278.278 0 0 1-.022-.145c.007-.039-.018-.071-.075-.1s-.086-.045-.086-.059-.041-.025-.123-.032l-.123-.011H3.081a1.647 1.647 0 0 1-1.209-.5 1.648 1.648 0 0 1-.5-1.209V44.2a1.648 1.648 0 0 1 .5-1.209 1.648 1.648 0 0 1 1.209-.5H6.5a.323.323 0 0 0 .219-.069.355.355 0 0 0 .107-.209 1.8 1.8 0 0 0 .032-.251 2.661 2.661 0 0 0-.005-.283q-.011-.171-.011-.214a.347.347 0 0 0-.342-.342H3.081a2.967 2.967 0 0 0-2.177.9A2.967 2.967 0 0 0 0 44.2v7.53a2.967 2.967 0 0 0 .9 2.17 2.967 2.967 0 0 0 2.177.9H6.5a.325.325 0 0 0 .219-.069.355.355 0 0 0 .107-.209 1.8 1.8 0 0 0 .032-.251 2.659 2.659 0 0 0-.005-.283q-.007-.166-.007-.208z" class="cls-1" data-name="Path 3811" transform="translate(0 -41.115)"/>
            <path id="Path_3812" d="M122.094 56.268l-5.819-5.819a.685.685 0 0 0-1.166.481v3.081h-4.792a.694.694 0 0 0-.685.685V58.8a.694.694 0 0 0 .685.685h4.792v3.081a.681.681 0 0 0 1.166.481l5.819-5.819a.672.672 0 0 0 0-.963z" class="cls-1" data-name="Path 3812" transform="translate(-105.526 -49.904)"/>
        </g>
    </g>
</svg>
