<svg xmlns="http://www.w3.org/2000/svg" id="user_17_" width="100.285" height="100.289" data-name="user (17)" viewBox="0 0 100.285 100.289">
    <defs>
        <style>
            .cls-1{fill:#cbcbcb}.cls-2{fill:#f1f1f1}
        </style>
    </defs>
    <path id="Path_52" d="M26.8 71.488l-14.962 8.161a13.446 13.446 0 0 0-2.4 1.709 50.113 50.113 0 0 0 64.387.167 13.273 13.273 0 0 0-2.638-1.767l-16.022-8.01a6.11 6.11 0 0 1-3.378-5.465V60a24.2 24.2 0 0 0 1.513-1.953 36.866 36.866 0 0 0 4.98-10.036 5.032 5.032 0 0 0 3.569-4.787v-6.71a5.009 5.009 0 0 0-1.673-3.714v-9.7S62.168 8 41.726 8 23.277 23.1 23.277 23.1v9.7a5 5 0 0 0-1.677 3.713v6.71a5.031 5.031 0 0 0 2.32 4.222A33.3 33.3 0 0 0 29.987 60v6.131a6.116 6.116 0 0 1-3.187 5.357z" class="cls-1" data-name="Path 52" transform="translate(8.42 7.139)"/>
    <g id="Group_68" data-name="Group 68">
        <path id="Path_53" d="M51 .008a50.113 50.113 0 0 0-33.122 88.473 13.324 13.324 0 0 1 2.379-1.692l14.962-8.161a6.112 6.112 0 0 0 3.181-5.364v-6.131a33.266 33.266 0 0 1-6.067-12.551 5.032 5.032 0 0 1-2.32-4.222v-6.71a5.009 5.009 0 0 1 1.677-3.718v-9.7S29.7 15.138 50.143 15.138s18.449 15.094 18.449 15.094v9.7a5 5 0 0 1 1.677 3.718v6.71a5.032 5.032 0 0 1-3.569 4.788 36.866 36.866 0 0 1-4.98 10.036 24.2 24.2 0 0 1-1.52 1.949v6.286a6.108 6.108 0 0 0 3.378 5.465l16.022 8.01a13.34 13.34 0 0 1 2.63 1.764A50.133 50.133 0 0 0 51 .008z" class="cls-2" data-name="Path 53"/>
    </g>
</svg>
